<mxfile host="Electron" modified="2024-03-26T18:11:20.744Z" agent="Mozilla/5.0 (Windows NT 10.0; Win64; x64) AppleWebKit/537.36 (KHTML, like Gecko) draw.io/24.1.0 Chrome/120.0.6099.109 Electron/28.1.0 Safari/537.36" etag="820bHTHFvG1NQ2y7d_G_" version="24.1.0" type="device">
  <diagram id="C5RBs43oDa-KdzZeNtuy" name="Page-1">
    <mxGraphModel dx="2180" dy="1242" grid="0" gridSize="10" guides="1" tooltips="1" connect="1" arrows="1" fold="1" page="0" pageScale="1" pageWidth="3300" pageHeight="4681" math="0" shadow="0">
      <root>
        <mxCell id="WIyWlLk6GJQsqaUBKTNV-0" />
        <mxCell id="WIyWlLk6GJQsqaUBKTNV-1" parent="WIyWlLk6GJQsqaUBKTNV-0" />
        <mxCell id="uBlw1acnTJKu4JBWq5QM-3" style="edgeStyle=orthogonalEdgeStyle;rounded=0;orthogonalLoop=1;jettySize=auto;html=1;exitX=0.5;exitY=1;exitDx=0;exitDy=0;exitPerimeter=0;entryX=0.5;entryY=0;entryDx=0;entryDy=0;" parent="WIyWlLk6GJQsqaUBKTNV-1" source="uBlw1acnTJKu4JBWq5QM-0" target="uBlw1acnTJKu4JBWq5QM-2" edge="1">
          <mxGeometry relative="1" as="geometry" />
        </mxCell>
        <mxCell id="uBlw1acnTJKu4JBWq5QM-0" value="Начало" style="strokeWidth=2;html=1;shape=mxgraph.flowchart.terminator;whiteSpace=wrap;" parent="WIyWlLk6GJQsqaUBKTNV-1" vertex="1">
          <mxGeometry x="965" y="50" width="100" height="60" as="geometry" />
        </mxCell>
        <mxCell id="uBlw1acnTJKu4JBWq5QM-5" style="edgeStyle=orthogonalEdgeStyle;rounded=0;orthogonalLoop=1;jettySize=auto;html=1;exitX=0.5;exitY=1;exitDx=0;exitDy=0;entryX=0.5;entryY=0;entryDx=0;entryDy=0;" parent="WIyWlLk6GJQsqaUBKTNV-1" source="uBlw1acnTJKu4JBWq5QM-2" target="uBlw1acnTJKu4JBWq5QM-4" edge="1">
          <mxGeometry relative="1" as="geometry" />
        </mxCell>
        <mxCell id="uBlw1acnTJKu4JBWq5QM-2" value="Ввод&lt;br&gt;n&lt;div&gt;matix&lt;/div&gt;&lt;div&gt;epsilon&lt;/div&gt;" style="shape=parallelogram;html=1;strokeWidth=2;perimeter=parallelogramPerimeter;whiteSpace=wrap;rounded=1;arcSize=12;size=0.23;" parent="WIyWlLk6GJQsqaUBKTNV-1" vertex="1">
          <mxGeometry x="960" y="170" width="110" height="70" as="geometry" />
        </mxCell>
        <mxCell id="uBlw1acnTJKu4JBWq5QM-7" style="edgeStyle=orthogonalEdgeStyle;rounded=0;orthogonalLoop=1;jettySize=auto;html=1;exitX=1;exitY=0.5;exitDx=0;exitDy=0;entryX=0;entryY=0.5;entryDx=0;entryDy=0;entryPerimeter=0;" parent="WIyWlLk6GJQsqaUBKTNV-1" source="uBlw1acnTJKu4JBWq5QM-4" target="uBlw1acnTJKu4JBWq5QM-131" edge="1">
          <mxGeometry relative="1" as="geometry" />
        </mxCell>
        <mxCell id="uBlw1acnTJKu4JBWq5QM-4" value="Имеет ли введённая матрица диагональное доминирование" style="rhombus;whiteSpace=wrap;html=1;" parent="WIyWlLk6GJQsqaUBKTNV-1" vertex="1">
          <mxGeometry x="905" y="280" width="220" height="150" as="geometry" />
        </mxCell>
        <mxCell id="uBlw1acnTJKu4JBWq5QM-8" value="Да" style="text;html=1;align=center;verticalAlign=middle;resizable=0;points=[];autosize=1;strokeColor=none;fillColor=none;" parent="WIyWlLk6GJQsqaUBKTNV-1" vertex="1">
          <mxGeometry x="1155" y="320" width="40" height="30" as="geometry" />
        </mxCell>
        <mxCell id="uBlw1acnTJKu4JBWq5QM-38" value="Конец" style="strokeWidth=2;html=1;shape=mxgraph.flowchart.start_1;whiteSpace=wrap;" parent="WIyWlLk6GJQsqaUBKTNV-1" vertex="1">
          <mxGeometry x="2395" y="1600" width="100" height="60" as="geometry" />
        </mxCell>
        <mxCell id="uBlw1acnTJKu4JBWq5QM-44" value="" style="edgeStyle=orthogonalEdgeStyle;rounded=0;orthogonalLoop=1;jettySize=auto;html=1;" parent="WIyWlLk6GJQsqaUBKTNV-1" source="uBlw1acnTJKu4JBWq5QM-40" target="uBlw1acnTJKu4JBWq5QM-43" edge="1">
          <mxGeometry relative="1" as="geometry" />
        </mxCell>
        <mxCell id="uBlw1acnTJKu4JBWq5QM-40" value="Цикл i&lt;div&gt;от 0 до n&lt;/div&gt;" style="strokeWidth=2;html=1;shape=mxgraph.flowchart.loop_limit;whiteSpace=wrap;" parent="WIyWlLk6GJQsqaUBKTNV-1" vertex="1">
          <mxGeometry x="700" y="400" width="100" height="80" as="geometry" />
        </mxCell>
        <mxCell id="uBlw1acnTJKu4JBWq5QM-41" style="edgeStyle=orthogonalEdgeStyle;rounded=0;orthogonalLoop=1;jettySize=auto;html=1;exitX=0;exitY=0.5;exitDx=0;exitDy=0;entryX=0.5;entryY=0;entryDx=0;entryDy=0;entryPerimeter=0;" parent="WIyWlLk6GJQsqaUBKTNV-1" source="uBlw1acnTJKu4JBWq5QM-4" target="uBlw1acnTJKu4JBWq5QM-40" edge="1">
          <mxGeometry relative="1" as="geometry" />
        </mxCell>
        <mxCell id="uBlw1acnTJKu4JBWq5QM-42" value="Нет" style="text;html=1;align=center;verticalAlign=middle;resizable=0;points=[];autosize=1;strokeColor=none;fillColor=none;" parent="WIyWlLk6GJQsqaUBKTNV-1" vertex="1">
          <mxGeometry x="800" y="320" width="40" height="30" as="geometry" />
        </mxCell>
        <mxCell id="uBlw1acnTJKu4JBWq5QM-49" style="edgeStyle=orthogonalEdgeStyle;rounded=0;orthogonalLoop=1;jettySize=auto;html=1;exitX=1;exitY=0.5;exitDx=0;exitDy=0;entryX=0;entryY=0.5;entryDx=0;entryDy=0;" parent="WIyWlLk6GJQsqaUBKTNV-1" source="uBlw1acnTJKu4JBWq5QM-43" target="uBlw1acnTJKu4JBWq5QM-48" edge="1">
          <mxGeometry relative="1" as="geometry" />
        </mxCell>
        <mxCell id="uBlw1acnTJKu4JBWq5QM-43" value="" style="rhombus;whiteSpace=wrap;html=1;strokeWidth=2;" parent="WIyWlLk6GJQsqaUBKTNV-1" vertex="1">
          <mxGeometry x="518.75" y="530" width="212.5" height="155" as="geometry" />
        </mxCell>
        <mxCell id="uBlw1acnTJKu4JBWq5QM-45" value="" style="shape=image;verticalLabelPosition=bottom;labelBackgroundColor=default;verticalAlign=top;aspect=fixed;imageAspect=0;image=data:image/png,iVBORw0KGgoAAAANSUhEUgAAALYAAABfCAYAAABFuz1OAAAAAXNSR0IArs4c6QAAAARnQU1BAACxjwv8YQUAAAAJcEhZcwAAEnQAABJ0Ad5mH3gAAAt9SURBVHhe7Z1JjA1dFMfLl29DbBAkYoqFIRFTEAnCQgyrFsOCCBLNComFIUjEghgWEm0hhkWL2AhhRVsRLRHEFCEkxLQgpkSkLfur3+17Wqmu6u73anj33e/8kkoN/V69qrqnzv3fc+693ac9JFAUz/jHrhXFK9SwFS9Rw1a8RA1b8RI1bMVL1LAVL1HDVrxEDVvxEjVsxUvUsBUvUcNWvEQNW/ESNWzFS9SwFS9Rw1a8RA1b8RI1bMVL1LAVL1HDVrxEDVvxEjVsxUt0lLpjXL582W6Vy7Jly+yWH6hhO0afPn3sVrn4ZgZq2I6Bx16+fLnd6+DAgQPBihUr7F42vnz5Erx+/TpYt26dPdKBGrZSODt27AiOHj1q9zp4+fJlMHbsWLuXnTt37gRz5syxe/4ZtjYeHWT//v3BjBkz7F4Ha9asCX7//m33sjN79uxg+/btds8/1LAdpG/fvsH58+ftXgf3798Pjh07ZvfyoaGhwW75h0oRh0nS2y0tLcHChQvtXja+f/8eDBo0yGz7ZgZq2I6TpLc/fPgQDB8+3O5lQ6IwvpmBShHHSdLbmzdvzk1vY9A++jY1bMdJ0ttXr17NXW/7hkqROiFJb7e2tprohtIV9dh1AinveHhu27ZtwcePH+2eEkU9dh2Brp43b54J/QmNjY3B8ePHjWRR/pC7x6YVT0u7Vp15kuBaXLumakjS22fOnAnOnj1r9/KFZ8by6tUre8QtpFyxuTgqReoM0uqXLl2yex1s2bIlePz4sd1TQA27DknS25s2bTIJF6UDNewUqOYOHjzorCeMx7fR3Tt37rR7ihp2N+zZsyeYOnVqMHPmzODcuXNOecQ0vc11KmrYqcyfP9/0yyDqgDek/zL9Kmio0OUzz5521ZKkt7lO1dsOGDZekFZ3tOXNsVp7x4EDB5rORqdPnzZ9M5qbm03VT78N+jETdjtx4kTN48hpervsF4/nQBlGnwfbtXIANTNsbhrvhxccN26cWajy0bWLFy8OTp48aT9Ze+hwtHbt2uDevXvBo0ePzIgWvDjRiBEjRgQbN24Mbty4UbNCTNLb+/bts3vFwn1TbjwHypD10qVLTTmyzQCJmkCCJk9C70HCpz2sIu2RrrS2tprPsIRG0h7efPu3b986v8sSygD76exwLT1dU6W0tbWZawylSuc1szQ1NZn7KRt+M3odLFnvV86Tdj/cK38PX6r2sEYzZRi++J3fY+E5FYWUK3YTp3TD5uZ5EHwmbrzsywMJq397NDtFGHYUrpWClftiqQVyn7IkFXglyHmSDFvKinuOl5XYQENDgz1SDN0ZdulS5MKFC6aqDC+m2w7zefU3LhraAs+fPzfhQe4LorKgTJL0dhEgufbu3Wu2d+3alVpWCxYssFvlU6phYwToUkgalvTp0yez7q5w0OVJKVQiFRwvK23O76EjaSMsWrTIdCUlgkKPu1u3btlPlc/IkSPtVhCsXr3abuXL7du3O1/iJUuWmHWUmzdvmjWh0iRoZFJW0dAkL4sEEViytldKNewXL17YrSCYNm2a3foDDwxmzZpl1nFocBKVkAcXhUZdfKRJ3vD7REJoLBEZIc6NdyZiEkosE0GhG2mtOiTxsonj4JqmTJlitvPmwYMHZo0Dit8rzkuMftSoUWYd59mzZ13KiueHsUsgoa4Mm/ksAG+d9EBIMMDEiRPNOk6/fv1M3Dapkz3egb8Rf84TrouWPy19WvkYDgVHZATvTKSEiAnhwVrCddKNFag5uKaiuHLlilknOSBxOrzwaRJl6NChpqyi3+ezOA3gu1mfZ6mGzZsKSfNjRMN7afNncLPoyKTO9Rzjb3kZGNVhXGrwQlIgeJfdu3c71cmfdDovHEZx+PBhe7QYxCPHwcseOnTIbOMI0pCyipfz169fzbq77/aW0huP8OPHD7vVAVUo1TrgbeLgjaQLZbwbpXRdTOu+WC28hHJNTU1NRurgqfJ8efICrSq1HbVZra6P2LkY/fjx4806SrSskoz36dOnZi3fpaaUz7NgJ72lVMMWiUEhiIYi/YteFYMeMGCAWXMTJD6AgiL7J0TfdAwNw4M0CVMNVJctLS1BW1ubGTxblF7NCs9PpivjOZRRi0jU5+7du2YNyAhkiAQF+vfvb8qYMhSDpKzQ/kA7JY7U6FKOc+fO7fytSu+tVMOOaipS0tw02pibXblypTnOw0ECYOzr1683xwADg6SIyc+fP8160qRJZp0HPETCkbVqCPYGajLS54Bj2LBhg9kuGtHvNAApQ+kkhkcWp3Px4sVg1apVZq7ApEbk9OnT7dYfpEHJOXgpGEBBDUBbBudSCf/adSlwwVwkepWboDpiHyOikHjb+dvkyZNN1R/1km/fvjXrJK9MAw6ioa6sIHfEg1QK3r4Mz4meFV2NDCjrJeQFGjZsmPn9J0+eGEOnLGkAUoY4J2plGtg0aKPXJc909OjRZi2IvOQFxcOLkVNTV5XTsIma3Ag9qskGkRWqhrQULKl3zkvKNgqZTI6HD9Qe6QrXUuk1yXeqWXgGRRO9vngGNy/k/JV2EegujS7njCOZTMoxfFHNduj07F+TkWeQ9Lxr0njsjjSvIyGmuFeW2HiSZssCYcOwQKtatm7das9SDHg3mYoBr5jXlGd5kVaG4pWT5GQ0Nn7q1CmznSXR5ZxhJ4FMocqlmou3+CU2nqTZssDvIJ2qWaqqOnsJ2pOZV4HnIbHreiDeOIwicnLChAkmQQNEpSTIUCl1YdgS38RopKUtnenlYQ0ZMuSvSIqvRENqRCJcbtymQcSE8qOWpTxxXLStaCvgULgnaiIgGy1dnCvCShKnER0tC3pbdJx0nWRBm/Wky+qZMnR1kYiOlkXKijX7lKsQ7/5a6f3WzYQ5vOFv3rzpEnHgjb927ZrZRhfXKjlRNHgtUvqADj1y5IjZrjdIuvz69euvspIIFBKFWlmgBv78+XOX471BZ4KqA3h5iQlLdU2jqh4lSJnUhcb+v0OaHKMGRqbnadR4SxIr0mbxBTVsx6Hqlj4rocauuEruCc5P6BCZ5xNq2A6DrqZnIaCr6WuRN2QOfUQN21HQ1Yw+B3Q1Q7Dyht+QXoG+oYbtKHQAEqMjE1dEtEeiSUC0ySfUsB2EMFeRQ7xoMNKDMvofEgYPHmy3/EDDfY6BrkZLS3axLOjjknfDtJaox3YI0dVlG7WPqMd2CEJvEgUpG9/MQA3bIdDWkogpm3pN0aehhq14iRq2w8isVsy2pH1DKkMbj45CH2XCcSx5GDXhPZnGIM9pKlxFDdtRGJVPGl2mK8gKE/zIudKmkPMJNWxHYXgZDbpKpipjpDieOQ0ZbTRmzBiz9hnV2A4SlQoMDO7NGEq6nTJHS3zaiigMxSJGTm2AvGFo2fv3783fGCRd6dwdLqOG7RgkaR4+fGgmDAIxQkFGm8Sh3wd9S+jaKkRHqcgIHAYAy4h/GqeSVud7RfQerBkYtuIW/IcAiqaxsdEe+UN03GNPy8vIfCAyrpAxosCYUc7PONH4XC0+oBrbQd69e2fWzIgVB68alttfC/Pa0bUV7x49Hu37gUQB5AqJIKaYg+vXrzs7L2EW1LAdJGqEPYF0oScgjczuwoIyoACJIzKHiep9HfysGttBmBsFvZw0b1087c6UzHyWOe9kplpBGp4YP5PmA15dBgZXPS9ePYBhK+6A9qVY0oqmGo3Nmv3tdo675uZms8/aV1SKOIbMA05yBpiel4iGENXYYYPQHKMvtRyLLqKxJYoiiRlZS8qeWoDFJ9SwHUMkA1PxknAR40sCOUH4rqcBAjJBuyRm+Dzf4/vIHtHcPqEa20Hw0nhZkibMRZ3WKMToezNLkiR8GMQg56IW4HeAhqdvWlsNW/ESlSKKl6hhK16ihq14iRq24iVq2IqXqGErXqKGrXiJGrbiIUHwH6i9sWWR4/yQAAAAAElFTkSuQmCC;" parent="WIyWlLk6GJQsqaUBKTNV-1" vertex="1">
          <mxGeometry x="562.74" y="575" width="124.53" height="65" as="geometry" />
        </mxCell>
        <mxCell id="uBlw1acnTJKu4JBWq5QM-46" style="edgeStyle=orthogonalEdgeStyle;rounded=0;orthogonalLoop=1;jettySize=auto;html=1;exitX=0;exitY=0.5;exitDx=0;exitDy=0;entryX=0;entryY=0.5;entryDx=0;entryDy=0;entryPerimeter=0;" parent="WIyWlLk6GJQsqaUBKTNV-1" source="uBlw1acnTJKu4JBWq5QM-43" target="uBlw1acnTJKu4JBWq5QM-40" edge="1">
          <mxGeometry relative="1" as="geometry">
            <Array as="points">
              <mxPoint x="465" y="608" />
              <mxPoint x="465" y="440" />
            </Array>
          </mxGeometry>
        </mxCell>
        <mxCell id="uBlw1acnTJKu4JBWq5QM-47" value="Да&lt;div&gt;&lt;br&gt;&lt;/div&gt;" style="text;html=1;align=center;verticalAlign=middle;resizable=0;points=[];autosize=1;strokeColor=none;fillColor=none;" parent="WIyWlLk6GJQsqaUBKTNV-1" vertex="1">
          <mxGeometry x="474" y="580" width="40" height="40" as="geometry" />
        </mxCell>
        <mxCell id="uBlw1acnTJKu4JBWq5QM-53" value="" style="edgeStyle=orthogonalEdgeStyle;rounded=0;orthogonalLoop=1;jettySize=auto;html=1;" parent="WIyWlLk6GJQsqaUBKTNV-1" source="uBlw1acnTJKu4JBWq5QM-48" target="uBlw1acnTJKu4JBWq5QM-52" edge="1">
          <mxGeometry relative="1" as="geometry" />
        </mxCell>
        <mxCell id="uBlw1acnTJKu4JBWq5QM-48" value="Цикл j&lt;div&gt;от i +1 до n&amp;nbsp;&amp;nbsp;&lt;/div&gt;" style="shape=loopLimit;whiteSpace=wrap;html=1;" parent="WIyWlLk6GJQsqaUBKTNV-1" vertex="1">
          <mxGeometry x="830" y="567.5" width="100" height="80" as="geometry" />
        </mxCell>
        <mxCell id="uBlw1acnTJKu4JBWq5QM-50" value="Нет" style="text;html=1;align=center;verticalAlign=middle;resizable=0;points=[];autosize=1;strokeColor=none;fillColor=none;" parent="WIyWlLk6GJQsqaUBKTNV-1" vertex="1">
          <mxGeometry x="750" y="578" width="40" height="30" as="geometry" />
        </mxCell>
        <mxCell id="uBlw1acnTJKu4JBWq5QM-55" style="edgeStyle=orthogonalEdgeStyle;rounded=0;orthogonalLoop=1;jettySize=auto;html=1;exitX=1;exitY=0.5;exitDx=0;exitDy=0;entryX=1;entryY=0.5;entryDx=0;entryDy=0;" parent="WIyWlLk6GJQsqaUBKTNV-1" source="uBlw1acnTJKu4JBWq5QM-52" target="uBlw1acnTJKu4JBWq5QM-48" edge="1">
          <mxGeometry relative="1" as="geometry">
            <Array as="points">
              <mxPoint x="1060" y="794" />
              <mxPoint x="1060" y="607" />
            </Array>
          </mxGeometry>
        </mxCell>
        <mxCell id="uBlw1acnTJKu4JBWq5QM-58" value="" style="edgeStyle=orthogonalEdgeStyle;rounded=0;orthogonalLoop=1;jettySize=auto;html=1;" parent="WIyWlLk6GJQsqaUBKTNV-1" source="uBlw1acnTJKu4JBWq5QM-52" target="uBlw1acnTJKu4JBWq5QM-57" edge="1">
          <mxGeometry relative="1" as="geometry" />
        </mxCell>
        <mxCell id="uBlw1acnTJKu4JBWq5QM-52" value="" style="rhombus;whiteSpace=wrap;html=1;" parent="WIyWlLk6GJQsqaUBKTNV-1" vertex="1">
          <mxGeometry x="765" y="720" width="230" height="147.5" as="geometry" />
        </mxCell>
        <mxCell id="uBlw1acnTJKu4JBWq5QM-54" value="" style="shape=image;verticalLabelPosition=bottom;labelBackgroundColor=default;verticalAlign=top;aspect=fixed;imageAspect=0;image=data:image/png,iVBORw0KGgoAAAANSUhEUgAAALYAAABfCAYAAABFuz1OAAAAAXNSR0IArs4c6QAAAARnQU1BAACxjwv8YQUAAAAJcEhZcwAAEnQAABJ0Ad5mH3gAAAt9SURBVHhe7Z1JjA1dFMfLl29DbBAkYoqFIRFTEAnCQgyrFsOCCBLNComFIUjEghgWEm0hhkWL2AhhRVsRLRHEFCEkxLQgpkSkLfur3+17Wqmu6u73anj33e/8kkoN/V69qrqnzv3fc+693ac9JFAUz/jHrhXFK9SwFS9Rw1a8RA1b8RI1bMVL1LAVL1HDVrxEDVvxEjVsxUvUsBUvUcNWvEQNW/ESNWzFS9SwFS9Rw1a8RA1b8RI1bMVL1LAVL1HDVrxEDVvxEjVsxUt0lLpjXL582W6Vy7Jly+yWH6hhO0afPn3sVrn4ZgZq2I6Bx16+fLnd6+DAgQPBihUr7F42vnz5Erx+/TpYt26dPdKBGrZSODt27AiOHj1q9zp4+fJlMHbsWLuXnTt37gRz5syxe/4ZtjYeHWT//v3BjBkz7F4Ha9asCX7//m33sjN79uxg+/btds8/1LAdpG/fvsH58+ftXgf3798Pjh07ZvfyoaGhwW75h0oRh0nS2y0tLcHChQvtXja+f/8eDBo0yGz7ZgZq2I6TpLc/fPgQDB8+3O5lQ6IwvpmBShHHSdLbmzdvzk1vY9A++jY1bMdJ0ttXr17NXW/7hkqROiFJb7e2tprohtIV9dh1AinveHhu27ZtwcePH+2eEkU9dh2Brp43b54J/QmNjY3B8ePHjWRR/pC7x6YVT0u7Vp15kuBaXLumakjS22fOnAnOnj1r9/KFZ8by6tUre8QtpFyxuTgqReoM0uqXLl2yex1s2bIlePz4sd1TQA27DknS25s2bTIJF6UDNewUqOYOHjzorCeMx7fR3Tt37rR7ihp2N+zZsyeYOnVqMHPmzODcuXNOecQ0vc11KmrYqcyfP9/0yyDqgDek/zL9Kmio0OUzz5521ZKkt7lO1dsOGDZekFZ3tOXNsVp7x4EDB5rORqdPnzZ9M5qbm03VT78N+jETdjtx4kTN48hpervsF4/nQBlGnwfbtXIANTNsbhrvhxccN26cWajy0bWLFy8OTp48aT9Ze+hwtHbt2uDevXvBo0ePzIgWvDjRiBEjRgQbN24Mbty4UbNCTNLb+/bts3vFwn1TbjwHypD10qVLTTmyzQCJmkCCJk9C70HCpz2sIu2RrrS2tprPsIRG0h7efPu3b986v8sSygD76exwLT1dU6W0tbWZawylSuc1szQ1NZn7KRt+M3odLFnvV86Tdj/cK38PX6r2sEYzZRi++J3fY+E5FYWUK3YTp3TD5uZ5EHwmbrzsywMJq397NDtFGHYUrpWClftiqQVyn7IkFXglyHmSDFvKinuOl5XYQENDgz1SDN0ZdulS5MKFC6aqDC+m2w7zefU3LhraAs+fPzfhQe4LorKgTJL0dhEgufbu3Wu2d+3alVpWCxYssFvlU6phYwToUkgalvTp0yez7q5w0OVJKVQiFRwvK23O76EjaSMsWrTIdCUlgkKPu1u3btlPlc/IkSPtVhCsXr3abuXL7du3O1/iJUuWmHWUmzdvmjWh0iRoZFJW0dAkL4sEEViytldKNewXL17YrSCYNm2a3foDDwxmzZpl1nFocBKVkAcXhUZdfKRJ3vD7REJoLBEZIc6NdyZiEkosE0GhG2mtOiTxsonj4JqmTJlitvPmwYMHZo0Dit8rzkuMftSoUWYd59mzZ13KiueHsUsgoa4Mm/ksAG+d9EBIMMDEiRPNOk6/fv1M3Dapkz3egb8Rf84TrouWPy19WvkYDgVHZATvTKSEiAnhwVrCddKNFag5uKaiuHLlilknOSBxOrzwaRJl6NChpqyi3+ezOA3gu1mfZ6mGzZsKSfNjRMN7afNncLPoyKTO9Rzjb3kZGNVhXGrwQlIgeJfdu3c71cmfdDovHEZx+PBhe7QYxCPHwcseOnTIbOMI0pCyipfz169fzbq77/aW0huP8OPHD7vVAVUo1TrgbeLgjaQLZbwbpXRdTOu+WC28hHJNTU1NRurgqfJ8efICrSq1HbVZra6P2LkY/fjx4806SrSskoz36dOnZi3fpaaUz7NgJ72lVMMWiUEhiIYi/YteFYMeMGCAWXMTJD6AgiL7J0TfdAwNw4M0CVMNVJctLS1BW1ubGTxblF7NCs9PpivjOZRRi0jU5+7du2YNyAhkiAQF+vfvb8qYMhSDpKzQ/kA7JY7U6FKOc+fO7fytSu+tVMOOaipS0tw02pibXblypTnOw0ECYOzr1683xwADg6SIyc+fP8160qRJZp0HPETCkbVqCPYGajLS54Bj2LBhg9kuGtHvNAApQ+kkhkcWp3Px4sVg1apVZq7ApEbk9OnT7dYfpEHJOXgpGEBBDUBbBudSCf/adSlwwVwkepWboDpiHyOikHjb+dvkyZNN1R/1km/fvjXrJK9MAw6ioa6sIHfEg1QK3r4Mz4meFV2NDCjrJeQFGjZsmPn9J0+eGEOnLGkAUoY4J2plGtg0aKPXJc909OjRZi2IvOQFxcOLkVNTV5XTsIma3Ag9qskGkRWqhrQULKl3zkvKNgqZTI6HD9Qe6QrXUuk1yXeqWXgGRRO9vngGNy/k/JV2EegujS7njCOZTMoxfFHNduj07F+TkWeQ9Lxr0njsjjSvIyGmuFeW2HiSZssCYcOwQKtatm7das9SDHg3mYoBr5jXlGd5kVaG4pWT5GQ0Nn7q1CmznSXR5ZxhJ4FMocqlmou3+CU2nqTZssDvIJ2qWaqqOnsJ2pOZV4HnIbHreiDeOIwicnLChAkmQQNEpSTIUCl1YdgS38RopKUtnenlYQ0ZMuSvSIqvRENqRCJcbtymQcSE8qOWpTxxXLStaCvgULgnaiIgGy1dnCvCShKnER0tC3pbdJx0nWRBm/Wky+qZMnR1kYiOlkXKijX7lKsQ7/5a6f3WzYQ5vOFv3rzpEnHgjb927ZrZRhfXKjlRNHgtUvqADj1y5IjZrjdIuvz69euvspIIFBKFWlmgBv78+XOX471BZ4KqA3h5iQlLdU2jqh4lSJnUhcb+v0OaHKMGRqbnadR4SxIr0mbxBTVsx6Hqlj4rocauuEruCc5P6BCZ5xNq2A6DrqZnIaCr6WuRN2QOfUQN21HQ1Yw+B3Q1Q7Dyht+QXoG+oYbtKHQAEqMjE1dEtEeiSUC0ySfUsB2EMFeRQ7xoMNKDMvofEgYPHmy3/EDDfY6BrkZLS3axLOjjknfDtJaox3YI0dVlG7WPqMd2CEJvEgUpG9/MQA3bIdDWkogpm3pN0aehhq14iRq2w8isVsy2pH1DKkMbj45CH2XCcSx5GDXhPZnGIM9pKlxFDdtRGJVPGl2mK8gKE/zIudKmkPMJNWxHYXgZDbpKpipjpDieOQ0ZbTRmzBiz9hnV2A4SlQoMDO7NGEq6nTJHS3zaiigMxSJGTm2AvGFo2fv3783fGCRd6dwdLqOG7RgkaR4+fGgmDAIxQkFGm8Sh3wd9S+jaKkRHqcgIHAYAy4h/GqeSVud7RfQerBkYtuIW/IcAiqaxsdEe+UN03GNPy8vIfCAyrpAxosCYUc7PONH4XC0+oBrbQd69e2fWzIgVB68alttfC/Pa0bUV7x49Hu37gUQB5AqJIKaYg+vXrzs7L2EW1LAdJGqEPYF0oScgjczuwoIyoACJIzKHiep9HfysGttBmBsFvZw0b1087c6UzHyWOe9kplpBGp4YP5PmA15dBgZXPS9ePYBhK+6A9qVY0oqmGo3Nmv3tdo675uZms8/aV1SKOIbMA05yBpiel4iGENXYYYPQHKMvtRyLLqKxJYoiiRlZS8qeWoDFJ9SwHUMkA1PxknAR40sCOUH4rqcBAjJBuyRm+Dzf4/vIHtHcPqEa20Hw0nhZkibMRZ3WKMToezNLkiR8GMQg56IW4HeAhqdvWlsNW/ESlSKKl6hhK16ihq14iRq24iVq2IqXqGErXqKGrXiJGrbiIUHwH6i9sWWR4/yQAAAAAElFTkSuQmCC;" parent="WIyWlLk6GJQsqaUBKTNV-1" vertex="1">
          <mxGeometry x="817.74" y="761.25" width="124.53" height="65" as="geometry" />
        </mxCell>
        <mxCell id="uBlw1acnTJKu4JBWq5QM-56" value="Нет" style="text;html=1;align=center;verticalAlign=middle;resizable=0;points=[];autosize=1;strokeColor=none;fillColor=none;" parent="WIyWlLk6GJQsqaUBKTNV-1" vertex="1">
          <mxGeometry x="1000" y="760" width="40" height="30" as="geometry" />
        </mxCell>
        <mxCell id="uBlw1acnTJKu4JBWq5QM-57" value="Обмен строк местами" style="whiteSpace=wrap;html=1;" parent="WIyWlLk6GJQsqaUBKTNV-1" vertex="1">
          <mxGeometry x="518.75" y="763.75" width="120" height="60" as="geometry" />
        </mxCell>
        <mxCell id="uBlw1acnTJKu4JBWq5QM-59" value="Да" style="text;html=1;align=center;verticalAlign=middle;resizable=0;points=[];autosize=1;strokeColor=none;fillColor=none;" parent="WIyWlLk6GJQsqaUBKTNV-1" vertex="1">
          <mxGeometry x="700" y="761.25" width="40" height="30" as="geometry" />
        </mxCell>
        <mxCell id="uBlw1acnTJKu4JBWq5QM-60" style="edgeStyle=orthogonalEdgeStyle;rounded=0;orthogonalLoop=1;jettySize=auto;html=1;entryX=0;entryY=0.5;entryDx=0;entryDy=0;entryPerimeter=0;" parent="WIyWlLk6GJQsqaUBKTNV-1" source="uBlw1acnTJKu4JBWq5QM-57" target="uBlw1acnTJKu4JBWq5QM-40" edge="1">
          <mxGeometry relative="1" as="geometry">
            <Array as="points">
              <mxPoint x="428" y="794" />
              <mxPoint x="428" y="440" />
            </Array>
          </mxGeometry>
        </mxCell>
        <mxCell id="uBlw1acnTJKu4JBWq5QM-61" style="edgeStyle=orthogonalEdgeStyle;rounded=0;orthogonalLoop=1;jettySize=auto;html=1;exitX=0.5;exitY=1;exitDx=0;exitDy=0;entryX=0;entryY=0.5;entryDx=0;entryDy=0;entryPerimeter=0;" parent="WIyWlLk6GJQsqaUBKTNV-1" source="uBlw1acnTJKu4JBWq5QM-52" target="uBlw1acnTJKu4JBWq5QM-40" edge="1">
          <mxGeometry relative="1" as="geometry">
            <Array as="points">
              <mxPoint x="880" y="887" />
              <mxPoint x="426" y="887" />
              <mxPoint x="426" y="440" />
            </Array>
          </mxGeometry>
        </mxCell>
        <mxCell id="uBlw1acnTJKu4JBWq5QM-62" value="" style="verticalLabelPosition=bottom;verticalAlign=top;html=1;shape=mxgraph.flowchart.on-page_reference;" parent="WIyWlLk6GJQsqaUBKTNV-1" vertex="1">
          <mxGeometry x="548.75" y="270" width="60" height="60" as="geometry" />
        </mxCell>
        <mxCell id="uBlw1acnTJKu4JBWq5QM-64" style="rounded=0;orthogonalLoop=1;jettySize=auto;html=1;exitX=0.1;exitY=0.15;exitDx=0;exitDy=0;exitPerimeter=0;entryX=0.855;entryY=0.855;entryDx=0;entryDy=0;entryPerimeter=0;" parent="WIyWlLk6GJQsqaUBKTNV-1" source="uBlw1acnTJKu4JBWq5QM-40" target="uBlw1acnTJKu4JBWq5QM-62" edge="1">
          <mxGeometry relative="1" as="geometry" />
        </mxCell>
        <mxCell id="uBlw1acnTJKu4JBWq5QM-65" value="&lt;font style=&quot;font-size: 19px;&quot;&gt;B&lt;/font&gt;" style="text;html=1;align=center;verticalAlign=middle;resizable=0;points=[];autosize=1;strokeColor=none;fillColor=none;" parent="WIyWlLk6GJQsqaUBKTNV-1" vertex="1">
          <mxGeometry x="558.75" y="280" width="40" height="40" as="geometry" />
        </mxCell>
        <mxCell id="uBlw1acnTJKu4JBWq5QM-71" value="" style="edgeStyle=orthogonalEdgeStyle;rounded=0;orthogonalLoop=1;jettySize=auto;html=1;" parent="WIyWlLk6GJQsqaUBKTNV-1" source="uBlw1acnTJKu4JBWq5QM-66" target="uBlw1acnTJKu4JBWq5QM-70" edge="1">
          <mxGeometry relative="1" as="geometry" />
        </mxCell>
        <mxCell id="uBlw1acnTJKu4JBWq5QM-66" value="" style="verticalLabelPosition=bottom;verticalAlign=top;html=1;shape=mxgraph.flowchart.on-page_reference;" parent="WIyWlLk6GJQsqaUBKTNV-1" vertex="1">
          <mxGeometry x="1870" y="175" width="60" height="60" as="geometry" />
        </mxCell>
        <mxCell id="uBlw1acnTJKu4JBWq5QM-67" value="&lt;font style=&quot;font-size: 19px;&quot;&gt;B&lt;/font&gt;" style="text;html=1;align=center;verticalAlign=middle;resizable=0;points=[];autosize=1;strokeColor=none;fillColor=none;" parent="WIyWlLk6GJQsqaUBKTNV-1" vertex="1">
          <mxGeometry x="1880" y="185" width="40" height="40" as="geometry" />
        </mxCell>
        <mxCell id="uBlw1acnTJKu4JBWq5QM-75" value="" style="edgeStyle=orthogonalEdgeStyle;rounded=0;orthogonalLoop=1;jettySize=auto;html=1;" parent="WIyWlLk6GJQsqaUBKTNV-1" source="uBlw1acnTJKu4JBWq5QM-70" edge="1">
          <mxGeometry relative="1" as="geometry">
            <mxPoint x="2395" y="205" as="targetPoint" />
          </mxGeometry>
        </mxCell>
        <mxCell id="uBlw1acnTJKu4JBWq5QM-108" style="edgeStyle=orthogonalEdgeStyle;rounded=0;orthogonalLoop=1;jettySize=auto;html=1;exitX=0.5;exitY=1;exitDx=0;exitDy=0;entryX=0.5;entryY=0;entryDx=0;entryDy=0;" parent="WIyWlLk6GJQsqaUBKTNV-1" source="uBlw1acnTJKu4JBWq5QM-70" target="uBlw1acnTJKu4JBWq5QM-107" edge="1">
          <mxGeometry relative="1" as="geometry" />
        </mxCell>
        <mxCell id="uBlw1acnTJKu4JBWq5QM-70" value="&lt;div&gt;&lt;br&gt;&lt;/div&gt;&lt;div&gt;&lt;br&gt;&lt;/div&gt;&lt;div&gt;Для столбцов&lt;/div&gt;" style="rhombus;whiteSpace=wrap;html=1;verticalAlign=top;" parent="WIyWlLk6GJQsqaUBKTNV-1" vertex="1">
          <mxGeometry x="2040" y="135" width="210" height="140" as="geometry" />
        </mxCell>
        <mxCell id="uBlw1acnTJKu4JBWq5QM-73" value="" style="shape=image;verticalLabelPosition=bottom;labelBackgroundColor=default;verticalAlign=top;aspect=fixed;imageAspect=0;image=data:image/png,iVBORw0KGgoAAAANSUhEUgAAAKYAAABLCAYAAAD6UvwrAAAAAXNSR0IArs4c6QAAAARnQU1BAACxjwv8YQUAAAAJcEhZcwAAEnQAABJ0Ad5mH3gAAAsCSURBVHhe7ZxbqA1dHMDH1/dCXlCU3PLgUnILKcSDXJ6OXB5IKJcnlIeDUPJA4kE5HuTyQPIi4onjiRwl5JboKHJ7ILeSePTNb+31P9/aY+acPXvWmpkz1q+mNTN779lrZv3nf1uXPr9DAo+nZPyjS4+nVHjB9JQSL5ieUuIF01NKvGB6SokXTE8p8YLpKSVeMD2lxCfYHXDp0iW9ly9Lly7Ve70fL5gO6NOnj97Llyo1pRdMB6Axly1bpo9q7N+/P1i+fLk+ysanT5+Cly9fBmvXrtVnalSqKRFMj31aW1uRkrqts7NTf2qHjo6OuutXCS+Yjvj58+fv6dOn1wkOx5y3ifkCVAkflTuib9++wblz5/RRjXv37gVHjhzRR3ZoaWnRe9XC+5iOifM329vbgwULFuijbHz9+jUYNGiQ2q9SU3rBzIHt27cHhw8f1kc13r17FwwbNkwfZUOyAFVqSm/Kc2Dfvn1B6F/qoxqbN28Ofv36pY+ygUBWTb94wcyBOH/zypUr1v3NKuFNeY7E+ZsdHR3BrFmz9JFH8BozR+gybG1t1Uc1tm3bFrx//14feQSvMXMGv3Lu3LkqdSRs2LAhOHr0qDL5nhqxGpMokkivqMEIcVCXstWpGeL8zVOnTgWnT5/WR3bhmbG9ePFCnykX0q7InIk35QUwZsyY4OLFi/qoxpYtW4JHjx7pI48XzIKI8zc3bdqkEuaeigsmZuLAgQOl1UTR/CZ+544dO/TR303lNebu3buDKVOmBDNmzAjOnj1bKo2U5G9Sz7+dSgvmvHnzVL80US/aiPGL9CvjaN++fdtaz0sW4vxN6vm3+5tWBBMtRNRnRn6cK1o7DRw4UA2WOHnypOqbPnPmjDKd9FvPnj1bpW2OHTtWeB4xyd/M+8XhOdCG5vNgv4gXOJNgUmm0D1po7NixasNk4tctWrQoOH78uP5m8TBgYs2aNcHdu3eDhw8fqhHlaFGi4eHDhwcbN24Mrl+/XpgWjfM39+7dq4/cwn3TbjwH2pByyZIlqh3Z7+zs1N/MERLsUWTwaWhi9Jk/MUdPh42sRmd/+fKlbuBqaEb1t7NDXXqqU1oYtEsdQ1PfVWe2trY266PNG4H/NOvBlvV+5TpJ98O98jmDmEOLotowfHG7fsdme3CzibQrcmPSlGBSeW6E70SFj2O5odB86rPZcSGYJtSVhpH7YisCuU/Zog2WFrlOnGBKW3HP0bYSGWhpadFn3JAkmE2Z8vPnzytTE16s2wGvtsYbugZf+NmzZyq9xH2BaVbzJM7fdAEuy549e9T+zp07E9tq/vz5ei9fUgsmjYhfBnHD+j98+KDK7h4ufmm0CwqIlDmfV7cj/4cfhY+8cOFCNRSNCJ4RPzdv3tTfyp8RI0bovSBYtWqV3rPLrVu3ul7CxYsXq9Lkxo0bqiTVFgdBEm1lprYQdgmC2bL466kF8/nz53ovCKZOnar3/ocbhpkzZ6oyCgETUbHcuAlBSXSkt234fyJxnH0ic/KcaEci9tBFURE8w9CKGlDByyIvPnWaPHmy2rfN/fv3VYkCid4rykeEduTIkaqM8vTp0z/aiueHsEognKtgMp8Z0JZxN0SCGCZMmKDKKP369VN5u7hBsrydfEb+0SbUi8iTSJMok4bnwROZox2J1InYSS8VCfVkGByguamTKy5fvqzKOAUiSoMXNsnEDxkyRLWV+Xu+y0sP/DbT89S+Zh04onyEYxpFPqOMQnTOZwmXzYQ4yXF1SgKH36wTG8481yCAKxuSHSAYsVU/ue9o8CPno8/TnHbMs0uLRPSN/lbaNSpPTecxv337pvdqYIIwi8DbHgVtIEOwosOwZOhT3PCnLGBupE5tbW3KVUBTEGAUrR2j4KuJtcGaFFU/cqdixseNG6dKE7OtsEBRnjx5okr5LZZKvs+GnDRCasEUE81DFB+C7jP8NRHIAQMGqJJKkLgGHjS9LwJdcQKCguBAkgvQDJib9vb2INQCavKXK38tKzw/We6F55DHVAtMLdy5c0eVgBnGjEtQ279/f9XGtKEIFG2F7wv46VFQBiDtOGfOnK7/SnNvqQXT9Cno0qPS+IZUdsWKFeo8N0e0i7CuW7dOnQMEBHC4o3z//l2VEydOVKUNeAiks4oKZBoBS0L3I/Bir1+/Xu27RvxXAhjaUAa5oBFFaVy4cCFYuXKlWispLgiaNm2a3vsfCYi4BkLNAGg0ML48yqFR/tVlw/CH/AmpFSqBOucYIeAh87bx2aRJk5TpNLXU69evVRmnFQlAwEyVZAV3Qd7gtKBt89BcBw8eVA2HVsGM5vUS8QIMHTpU/f/jx4+VoNKWBDC0IcoFq0iASEBm1kue6ahRo1QpiHvGC4aGFSHFUqbOaWtfs47ugp9GSOrCkkAEB9kER5/zBCZJiJOcpk7ym2a2uODONmb9oj1otpDrJ3VJJtFdN6RcM4r0JNGOEkCFSkt/Go88A2vBT3ckvfWSoohqRcmNxvksWSDtFDZIU9vWrVv1VdyAdpGpvGglW0vG2CKpDUUrxrljZm70xIkTar/ZjgonghkHZh6ThZmIRpySG43zWbLA/+B6NLOlNj0pwPdavXq12ud5SO6yNxANbkzEHRs/frxKsANZkWYS7bkJ5ufPn1VJo0ukJ4Nh5WYHDx5cF8lXFTMlQyRc5uAsCSJ22g8rR3uieIgt8JVRCNwTlgDoDZQhkg2jTbpzxI+UDX9T/BgZesWGb9KTX9KbycOvdIn4kbJJW1FyTLsKkmyXLc395rrgAW/Yq1ev/oh4eeOuXr2q9vELi0ouuwatQZco4IcdOnRI7fc2SJr/+PGjrq0kA4KJxyoKWMCPHz/+cb4n/EocOcHLR05QzB1BQW804XmRm4/5t0M3I0IJzIy0KZRoKxLj4rNXAS+YOYDpkz770MdMZdIageuTesJNqgpeMB2DX8kgZMCvpK/ZNvTcVA0vmA7Br2T2I+BXMoXBNvyHjEqqEl4wHcIABhEaekJcZBskmwFkOyoDUbnHPpLXY2P2pW06YwZBc64q+HSRA/Ar8SWldycv6OO3HVgVhTfllhG/Mm+hrBpeY1qG1I1E4XlTpab0gmkZuuAkkZ43vbWLMw4vmJ5S4gXTMbKqCKtd+L7xxvHBj0MYo0hXIZsNoWSCn0yDtTnNuYx4wXQIs0LphpTprlnZtWtX17WSluCpCl4wHcL0DAKSNEu9yIKpScho/9GjR6uyqngf0xGmqWViWyNziBi2xhz96LRnE6YykCNFG+MeMDXj7du36jMm+aWZu11mvGA6gCT7gwcP1IIPIEIkyGjvKPR707fO0DjBHCUuI+CZwCYzTgmuZLYlv3MxeqkQEEyPfVihl8fLQllRzHk/PW1m/7f0vzNHCpgzxfWZJxWdq9/b8T6mI968eaNKViSJglYLn33dxro+DI1Du5rnzb5vTDxg7knks0QPXLt2rbTrMjWLF0xHmELUE5h+1uwkSOourSQDgnERxE1godkqTt7zPqYjmBuPvxi3bk+025IlHfkua/7ISnmCBE4IL4veAlpVJrY1tS5QbwDB9NgF349Hm/R4m/ExKTlu1Wv8MMaTYxdjPcuAN+UOkHVASa4Dy/sRUQumjxkGNOocYynlnLmJjylRvCTWpZQuT7QwW1XwgukAMbks5UfCXIQnDswx6Z+eBvjKAquSWOf7/I7f4zaIz1kVvI/pCLQkWo6kN2tRJgU1CG0jq1RIwp5ByHIttDD/AwROVfI1vWB6Sok35Z4SEgT/AXozrRcRVzQlAAAAAElFTkSuQmCC;" parent="WIyWlLk6GJQsqaUBKTNV-1" vertex="1">
          <mxGeometry x="2095.2" y="195" width="99.61" height="45" as="geometry" />
        </mxCell>
        <mxCell id="uBlw1acnTJKu4JBWq5QM-76" value="" style="verticalLabelPosition=bottom;verticalAlign=top;html=1;shape=mxgraph.flowchart.on-page_reference;" parent="WIyWlLk6GJQsqaUBKTNV-1" vertex="1">
          <mxGeometry x="2390" y="175" width="60" height="60" as="geometry" />
        </mxCell>
        <mxCell id="uBlw1acnTJKu4JBWq5QM-79" value="&lt;font style=&quot;font-size: 17px;&quot;&gt;A&lt;/font&gt;" style="text;html=1;align=center;verticalAlign=middle;resizable=0;points=[];autosize=1;strokeColor=none;fillColor=none;" parent="WIyWlLk6GJQsqaUBKTNV-1" vertex="1">
          <mxGeometry x="2405" y="190" width="30" height="30" as="geometry" />
        </mxCell>
        <mxCell id="uBlw1acnTJKu4JBWq5QM-80" value="Да" style="text;html=1;align=center;verticalAlign=middle;resizable=0;points=[];autosize=1;strokeColor=none;fillColor=none;" parent="WIyWlLk6GJQsqaUBKTNV-1" vertex="1">
          <mxGeometry x="2300" y="170" width="40" height="30" as="geometry" />
        </mxCell>
        <mxCell id="uBlw1acnTJKu4JBWq5QM-111" style="edgeStyle=orthogonalEdgeStyle;rounded=0;orthogonalLoop=1;jettySize=auto;html=1;exitX=0.5;exitY=1;exitDx=0;exitDy=0;" parent="WIyWlLk6GJQsqaUBKTNV-1" source="uBlw1acnTJKu4JBWq5QM-107" target="uBlw1acnTJKu4JBWq5QM-110" edge="1">
          <mxGeometry relative="1" as="geometry" />
        </mxCell>
        <mxCell id="uBlw1acnTJKu4JBWq5QM-122" value="" style="edgeStyle=orthogonalEdgeStyle;rounded=0;orthogonalLoop=1;jettySize=auto;html=1;entryX=0;entryY=0.5;entryDx=0;entryDy=0;" parent="WIyWlLk6GJQsqaUBKTNV-1" source="uBlw1acnTJKu4JBWq5QM-107" target="uBlw1acnTJKu4JBWq5QM-123" edge="1">
          <mxGeometry relative="1" as="geometry">
            <mxPoint x="2405" y="389.9999999999999" as="targetPoint" />
          </mxGeometry>
        </mxCell>
        <mxCell id="uBlw1acnTJKu4JBWq5QM-107" value="Цикл i&amp;nbsp;&lt;div&gt;от 0 до n&lt;/div&gt;" style="shape=loopLimit;whiteSpace=wrap;html=1;" parent="WIyWlLk6GJQsqaUBKTNV-1" vertex="1">
          <mxGeometry x="1880" y="350" width="100" height="80" as="geometry" />
        </mxCell>
        <mxCell id="uBlw1acnTJKu4JBWq5QM-109" value="Нет" style="text;html=1;align=center;verticalAlign=middle;resizable=0;points=[];autosize=1;strokeColor=none;fillColor=none;" parent="WIyWlLk6GJQsqaUBKTNV-1" vertex="1">
          <mxGeometry x="2100" y="280" width="40" height="30" as="geometry" />
        </mxCell>
        <mxCell id="uBlw1acnTJKu4JBWq5QM-113" style="edgeStyle=orthogonalEdgeStyle;rounded=0;orthogonalLoop=1;jettySize=auto;html=1;exitX=0;exitY=0.5;exitDx=0;exitDy=0;entryX=0;entryY=0.5;entryDx=0;entryDy=0;" parent="WIyWlLk6GJQsqaUBKTNV-1" source="uBlw1acnTJKu4JBWq5QM-110" target="uBlw1acnTJKu4JBWq5QM-107" edge="1">
          <mxGeometry relative="1" as="geometry">
            <Array as="points">
              <mxPoint x="1750" y="590" />
              <mxPoint x="1750" y="390" />
            </Array>
          </mxGeometry>
        </mxCell>
        <mxCell id="uBlw1acnTJKu4JBWq5QM-116" style="edgeStyle=orthogonalEdgeStyle;rounded=0;orthogonalLoop=1;jettySize=auto;html=1;exitX=1;exitY=0.5;exitDx=0;exitDy=0;entryX=0;entryY=0.5;entryDx=0;entryDy=0;" parent="WIyWlLk6GJQsqaUBKTNV-1" source="uBlw1acnTJKu4JBWq5QM-110" target="uBlw1acnTJKu4JBWq5QM-115" edge="1">
          <mxGeometry relative="1" as="geometry" />
        </mxCell>
        <mxCell id="uBlw1acnTJKu4JBWq5QM-110" value="&lt;div&gt;&lt;br&gt;&lt;/div&gt;&lt;div&gt;&lt;br&gt;&lt;/div&gt;&lt;div&gt;Для столбцов&lt;/div&gt;" style="rhombus;whiteSpace=wrap;html=1;verticalAlign=top;" parent="WIyWlLk6GJQsqaUBKTNV-1" vertex="1">
          <mxGeometry x="1825" y="520" width="210" height="140" as="geometry" />
        </mxCell>
        <mxCell id="uBlw1acnTJKu4JBWq5QM-112" value="" style="shape=image;verticalLabelPosition=bottom;labelBackgroundColor=default;verticalAlign=top;aspect=fixed;imageAspect=0;image=data:image/png,iVBORw0KGgoAAAANSUhEUgAAAKYAAABLCAYAAAD6UvwrAAAAAXNSR0IArs4c6QAAAARnQU1BAACxjwv8YQUAAAAJcEhZcwAAEnQAABJ0Ad5mH3gAAAsCSURBVHhe7ZxbqA1dHMDH1/dCXlCU3PLgUnILKcSDXJ6OXB5IKJcnlIeDUPJA4kE5HuTyQPIi4onjiRwl5JboKHJ7ILeSePTNb+31P9/aY+acPXvWmpkz1q+mNTN779lrZv3nf1uXPr9DAo+nZPyjS4+nVHjB9JQSL5ieUuIF01NKvGB6SokXTE8p8YLpKSVeMD2lxCfYHXDp0iW9ly9Lly7Ve70fL5gO6NOnj97Llyo1pRdMB6Axly1bpo9q7N+/P1i+fLk+ysanT5+Cly9fBmvXrtVnalSqKRFMj31aW1uRkrqts7NTf2qHjo6OuutXCS+Yjvj58+fv6dOn1wkOx5y3ifkCVAkflTuib9++wblz5/RRjXv37gVHjhzRR3ZoaWnRe9XC+5iOifM329vbgwULFuijbHz9+jUYNGiQ2q9SU3rBzIHt27cHhw8f1kc13r17FwwbNkwfZUOyAFVqSm/Kc2Dfvn1B6F/qoxqbN28Ofv36pY+ygUBWTb94wcyBOH/zypUr1v3NKuFNeY7E+ZsdHR3BrFmz9JFH8BozR+gybG1t1Uc1tm3bFrx//14feQSvMXMGv3Lu3LkqdSRs2LAhOHr0qDL5nhqxGpMokkivqMEIcVCXstWpGeL8zVOnTgWnT5/WR3bhmbG9ePFCnykX0q7InIk35QUwZsyY4OLFi/qoxpYtW4JHjx7pI48XzIKI8zc3bdqkEuaeigsmZuLAgQOl1UTR/CZ+544dO/TR303lNebu3buDKVOmBDNmzAjOnj1bKo2U5G9Sz7+dSgvmvHnzVL80US/aiPGL9CvjaN++fdtaz0sW4vxN6vm3+5tWBBMtRNRnRn6cK1o7DRw4UA2WOHnypOqbPnPmjDKd9FvPnj1bpW2OHTtWeB4xyd/M+8XhOdCG5vNgv4gXOJNgUmm0D1po7NixasNk4tctWrQoOH78uP5m8TBgYs2aNcHdu3eDhw8fqhHlaFGi4eHDhwcbN24Mrl+/XpgWjfM39+7dq4/cwn3TbjwH2pByyZIlqh3Z7+zs1N/MERLsUWTwaWhi9Jk/MUdPh42sRmd/+fKlbuBqaEb1t7NDXXqqU1oYtEsdQ1PfVWe2trY266PNG4H/NOvBlvV+5TpJ98O98jmDmEOLotowfHG7fsdme3CzibQrcmPSlGBSeW6E70SFj2O5odB86rPZcSGYJtSVhpH7YisCuU/Zog2WFrlOnGBKW3HP0bYSGWhpadFn3JAkmE2Z8vPnzytTE16s2wGvtsYbugZf+NmzZyq9xH2BaVbzJM7fdAEuy549e9T+zp07E9tq/vz5ei9fUgsmjYhfBnHD+j98+KDK7h4ufmm0CwqIlDmfV7cj/4cfhY+8cOFCNRSNCJ4RPzdv3tTfyp8RI0bovSBYtWqV3rPLrVu3ul7CxYsXq9Lkxo0bqiTVFgdBEm1lprYQdgmC2bL466kF8/nz53ovCKZOnar3/ocbhpkzZ6oyCgETUbHcuAlBSXSkt234fyJxnH0ic/KcaEci9tBFURE8w9CKGlDByyIvPnWaPHmy2rfN/fv3VYkCid4rykeEduTIkaqM8vTp0z/aiueHsEognKtgMp8Z0JZxN0SCGCZMmKDKKP369VN5u7hBsrydfEb+0SbUi8iTSJMok4bnwROZox2J1InYSS8VCfVkGByguamTKy5fvqzKOAUiSoMXNsnEDxkyRLWV+Xu+y0sP/DbT89S+Zh04onyEYxpFPqOMQnTOZwmXzYQ4yXF1SgKH36wTG8481yCAKxuSHSAYsVU/ue9o8CPno8/TnHbMs0uLRPSN/lbaNSpPTecxv337pvdqYIIwi8DbHgVtIEOwosOwZOhT3PCnLGBupE5tbW3KVUBTEGAUrR2j4KuJtcGaFFU/cqdixseNG6dKE7OtsEBRnjx5okr5LZZKvs+GnDRCasEUE81DFB+C7jP8NRHIAQMGqJJKkLgGHjS9LwJdcQKCguBAkgvQDJib9vb2INQCavKXK38tKzw/We6F55DHVAtMLdy5c0eVgBnGjEtQ279/f9XGtKEIFG2F7wv46VFQBiDtOGfOnK7/SnNvqQXT9Cno0qPS+IZUdsWKFeo8N0e0i7CuW7dOnQMEBHC4o3z//l2VEydOVKUNeAiks4oKZBoBS0L3I/Bir1+/Xu27RvxXAhjaUAa5oBFFaVy4cCFYuXKlWispLgiaNm2a3vsfCYi4BkLNAGg0ML48yqFR/tVlw/CH/AmpFSqBOucYIeAh87bx2aRJk5TpNLXU69evVRmnFQlAwEyVZAV3Qd7gtKBt89BcBw8eVA2HVsGM5vUS8QIMHTpU/f/jx4+VoNKWBDC0IcoFq0iASEBm1kue6ahRo1QpiHvGC4aGFSHFUqbOaWtfs47ugp9GSOrCkkAEB9kER5/zBCZJiJOcpk7ym2a2uODONmb9oj1otpDrJ3VJJtFdN6RcM4r0JNGOEkCFSkt/Go88A2vBT3ckvfWSoohqRcmNxvksWSDtFDZIU9vWrVv1VdyAdpGpvGglW0vG2CKpDUUrxrljZm70xIkTar/ZjgonghkHZh6ThZmIRpySG43zWbLA/+B6NLOlNj0pwPdavXq12ud5SO6yNxANbkzEHRs/frxKsANZkWYS7bkJ5ufPn1VJo0ukJ4Nh5WYHDx5cF8lXFTMlQyRc5uAsCSJ22g8rR3uieIgt8JVRCNwTlgDoDZQhkg2jTbpzxI+UDX9T/BgZesWGb9KTX9KbycOvdIn4kbJJW1FyTLsKkmyXLc395rrgAW/Yq1ev/oh4eeOuXr2q9vELi0ouuwatQZco4IcdOnRI7fc2SJr/+PGjrq0kA4KJxyoKWMCPHz/+cb4n/EocOcHLR05QzB1BQW804XmRm4/5t0M3I0IJzIy0KZRoKxLj4rNXAS+YOYDpkz770MdMZdIageuTesJNqgpeMB2DX8kgZMCvpK/ZNvTcVA0vmA7Br2T2I+BXMoXBNvyHjEqqEl4wHcIABhEaekJcZBskmwFkOyoDUbnHPpLXY2P2pW06YwZBc64q+HSRA/Ar8SWldycv6OO3HVgVhTfllhG/Mm+hrBpeY1qG1I1E4XlTpab0gmkZuuAkkZ43vbWLMw4vmJ5S4gXTMbKqCKtd+L7xxvHBj0MYo0hXIZsNoWSCn0yDtTnNuYx4wXQIs0LphpTprlnZtWtX17WSluCpCl4wHcL0DAKSNEu9yIKpScho/9GjR6uyqngf0xGmqWViWyNziBi2xhz96LRnE6YykCNFG+MeMDXj7du36jMm+aWZu11mvGA6gCT7gwcP1IIPIEIkyGjvKPR707fO0DjBHCUuI+CZwCYzTgmuZLYlv3MxeqkQEEyPfVihl8fLQllRzHk/PW1m/7f0vzNHCpgzxfWZJxWdq9/b8T6mI968eaNKViSJglYLn33dxro+DI1Du5rnzb5vTDxg7knks0QPXLt2rbTrMjWLF0xHmELUE5h+1uwkSOourSQDgnERxE1godkqTt7zPqYjmBuPvxi3bk+025IlHfkua/7ISnmCBE4IL4veAlpVJrY1tS5QbwDB9NgF349Hm/R4m/ExKTlu1Wv8MMaTYxdjPcuAN+UOkHVASa4Dy/sRUQumjxkGNOocYynlnLmJjylRvCTWpZQuT7QwW1XwgukAMbks5UfCXIQnDswx6Z+eBvjKAquSWOf7/I7f4zaIz1kVvI/pCLQkWo6kN2tRJgU1CG0jq1RIwp5ByHIttDD/AwROVfI1vWB6Sok35Z4SEgT/AXozrRcRVzQlAAAAAElFTkSuQmCC;" parent="WIyWlLk6GJQsqaUBKTNV-1" vertex="1">
          <mxGeometry x="1879.9999999999998" y="577.5" width="99.61" height="45" as="geometry" />
        </mxCell>
        <mxCell id="uBlw1acnTJKu4JBWq5QM-114" value="Да" style="text;html=1;align=center;verticalAlign=middle;resizable=0;points=[];autosize=1;strokeColor=none;fillColor=none;" parent="WIyWlLk6GJQsqaUBKTNV-1" vertex="1">
          <mxGeometry x="1770" y="558" width="40" height="30" as="geometry" />
        </mxCell>
        <mxCell id="uBlw1acnTJKu4JBWq5QM-119" value="" style="edgeStyle=orthogonalEdgeStyle;rounded=0;orthogonalLoop=1;jettySize=auto;html=1;" parent="WIyWlLk6GJQsqaUBKTNV-1" source="uBlw1acnTJKu4JBWq5QM-115" target="uBlw1acnTJKu4JBWq5QM-118" edge="1">
          <mxGeometry relative="1" as="geometry" />
        </mxCell>
        <mxCell id="uBlw1acnTJKu4JBWq5QM-115" value="Цикл j&lt;div&gt;от i + 1 до n&lt;/div&gt;" style="shape=loopLimit;whiteSpace=wrap;html=1;" parent="WIyWlLk6GJQsqaUBKTNV-1" vertex="1">
          <mxGeometry x="2140" y="550" width="100" height="80" as="geometry" />
        </mxCell>
        <mxCell id="uBlw1acnTJKu4JBWq5QM-117" value="Нет" style="text;html=1;align=center;verticalAlign=middle;resizable=0;points=[];autosize=1;strokeColor=none;fillColor=none;" parent="WIyWlLk6GJQsqaUBKTNV-1" vertex="1">
          <mxGeometry x="2060" y="558" width="40" height="30" as="geometry" />
        </mxCell>
        <mxCell id="uBlw1acnTJKu4JBWq5QM-120" style="edgeStyle=orthogonalEdgeStyle;rounded=0;orthogonalLoop=1;jettySize=auto;html=1;exitX=0;exitY=0.5;exitDx=0;exitDy=0;entryX=0;entryY=0.5;entryDx=0;entryDy=0;" parent="WIyWlLk6GJQsqaUBKTNV-1" source="uBlw1acnTJKu4JBWq5QM-118" target="uBlw1acnTJKu4JBWq5QM-107" edge="1">
          <mxGeometry relative="1" as="geometry">
            <Array as="points">
              <mxPoint x="1750" y="750" />
              <mxPoint x="1750" y="390" />
            </Array>
          </mxGeometry>
        </mxCell>
        <mxCell id="uBlw1acnTJKu4JBWq5QM-118" value="Обмен столбцов" style="whiteSpace=wrap;html=1;" parent="WIyWlLk6GJQsqaUBKTNV-1" vertex="1">
          <mxGeometry x="2130" y="720" width="120" height="60" as="geometry" />
        </mxCell>
        <mxCell id="uBlw1acnTJKu4JBWq5QM-123" value="&lt;div&gt;&lt;br&gt;&lt;/div&gt;&lt;div&gt;&lt;br&gt;&lt;/div&gt;&lt;div&gt;Для столбцов&lt;/div&gt;" style="rhombus;whiteSpace=wrap;html=1;verticalAlign=top;" parent="WIyWlLk6GJQsqaUBKTNV-1" vertex="1">
          <mxGeometry x="2160" y="320" width="210" height="140" as="geometry" />
        </mxCell>
        <mxCell id="uBlw1acnTJKu4JBWq5QM-124" value="" style="shape=image;verticalLabelPosition=bottom;labelBackgroundColor=default;verticalAlign=top;aspect=fixed;imageAspect=0;image=data:image/png,iVBORw0KGgoAAAANSUhEUgAAAKYAAABLCAYAAAD6UvwrAAAAAXNSR0IArs4c6QAAAARnQU1BAACxjwv8YQUAAAAJcEhZcwAAEnQAABJ0Ad5mH3gAAAsCSURBVHhe7ZxbqA1dHMDH1/dCXlCU3PLgUnILKcSDXJ6OXB5IKJcnlIeDUPJA4kE5HuTyQPIi4onjiRwl5JboKHJ7ILeSePTNb+31P9/aY+acPXvWmpkz1q+mNTN779lrZv3nf1uXPr9DAo+nZPyjS4+nVHjB9JQSL5ieUuIF01NKvGB6SokXTE8p8YLpKSVeMD2lxCfYHXDp0iW9ly9Lly7Ve70fL5gO6NOnj97Llyo1pRdMB6Axly1bpo9q7N+/P1i+fLk+ysanT5+Cly9fBmvXrtVnalSqKRFMj31aW1uRkrqts7NTf2qHjo6OuutXCS+Yjvj58+fv6dOn1wkOx5y3ifkCVAkflTuib9++wblz5/RRjXv37gVHjhzRR3ZoaWnRe9XC+5iOifM329vbgwULFuijbHz9+jUYNGiQ2q9SU3rBzIHt27cHhw8f1kc13r17FwwbNkwfZUOyAFVqSm/Kc2Dfvn1B6F/qoxqbN28Ofv36pY+ygUBWTb94wcyBOH/zypUr1v3NKuFNeY7E+ZsdHR3BrFmz9JFH8BozR+gybG1t1Uc1tm3bFrx//14feQSvMXMGv3Lu3LkqdSRs2LAhOHr0qDL5nhqxGpMokkivqMEIcVCXstWpGeL8zVOnTgWnT5/WR3bhmbG9ePFCnykX0q7InIk35QUwZsyY4OLFi/qoxpYtW4JHjx7pI48XzIKI8zc3bdqkEuaeigsmZuLAgQOl1UTR/CZ+544dO/TR303lNebu3buDKVOmBDNmzAjOnj1bKo2U5G9Sz7+dSgvmvHnzVL80US/aiPGL9CvjaN++fdtaz0sW4vxN6vm3+5tWBBMtRNRnRn6cK1o7DRw4UA2WOHnypOqbPnPmjDKd9FvPnj1bpW2OHTtWeB4xyd/M+8XhOdCG5vNgv4gXOJNgUmm0D1po7NixasNk4tctWrQoOH78uP5m8TBgYs2aNcHdu3eDhw8fqhHlaFGi4eHDhwcbN24Mrl+/XpgWjfM39+7dq4/cwn3TbjwH2pByyZIlqh3Z7+zs1N/MERLsUWTwaWhi9Jk/MUdPh42sRmd/+fKlbuBqaEb1t7NDXXqqU1oYtEsdQ1PfVWe2trY266PNG4H/NOvBlvV+5TpJ98O98jmDmEOLotowfHG7fsdme3CzibQrcmPSlGBSeW6E70SFj2O5odB86rPZcSGYJtSVhpH7YisCuU/Zog2WFrlOnGBKW3HP0bYSGWhpadFn3JAkmE2Z8vPnzytTE16s2wGvtsYbugZf+NmzZyq9xH2BaVbzJM7fdAEuy549e9T+zp07E9tq/vz5ei9fUgsmjYhfBnHD+j98+KDK7h4ufmm0CwqIlDmfV7cj/4cfhY+8cOFCNRSNCJ4RPzdv3tTfyp8RI0bovSBYtWqV3rPLrVu3ul7CxYsXq9Lkxo0bqiTVFgdBEm1lprYQdgmC2bL466kF8/nz53ovCKZOnar3/ocbhpkzZ6oyCgETUbHcuAlBSXSkt234fyJxnH0ic/KcaEci9tBFURE8w9CKGlDByyIvPnWaPHmy2rfN/fv3VYkCid4rykeEduTIkaqM8vTp0z/aiueHsEognKtgMp8Z0JZxN0SCGCZMmKDKKP369VN5u7hBsrydfEb+0SbUi8iTSJMok4bnwROZox2J1InYSS8VCfVkGByguamTKy5fvqzKOAUiSoMXNsnEDxkyRLWV+Xu+y0sP/DbT89S+Zh04onyEYxpFPqOMQnTOZwmXzYQ4yXF1SgKH36wTG8481yCAKxuSHSAYsVU/ue9o8CPno8/TnHbMs0uLRPSN/lbaNSpPTecxv337pvdqYIIwi8DbHgVtIEOwosOwZOhT3PCnLGBupE5tbW3KVUBTEGAUrR2j4KuJtcGaFFU/cqdixseNG6dKE7OtsEBRnjx5okr5LZZKvs+GnDRCasEUE81DFB+C7jP8NRHIAQMGqJJKkLgGHjS9LwJdcQKCguBAkgvQDJib9vb2INQCavKXK38tKzw/We6F55DHVAtMLdy5c0eVgBnGjEtQ279/f9XGtKEIFG2F7wv46VFQBiDtOGfOnK7/SnNvqQXT9Cno0qPS+IZUdsWKFeo8N0e0i7CuW7dOnQMEBHC4o3z//l2VEydOVKUNeAiks4oKZBoBS0L3I/Bir1+/Xu27RvxXAhjaUAa5oBFFaVy4cCFYuXKlWispLgiaNm2a3vsfCYi4BkLNAGg0ML48yqFR/tVlw/CH/AmpFSqBOucYIeAh87bx2aRJk5TpNLXU69evVRmnFQlAwEyVZAV3Qd7gtKBt89BcBw8eVA2HVsGM5vUS8QIMHTpU/f/jx4+VoNKWBDC0IcoFq0iASEBm1kue6ahRo1QpiHvGC4aGFSHFUqbOaWtfs47ugp9GSOrCkkAEB9kER5/zBCZJiJOcpk7ym2a2uODONmb9oj1otpDrJ3VJJtFdN6RcM4r0JNGOEkCFSkt/Go88A2vBT3ckvfWSoohqRcmNxvksWSDtFDZIU9vWrVv1VdyAdpGpvGglW0vG2CKpDUUrxrljZm70xIkTar/ZjgonghkHZh6ThZmIRpySG43zWbLA/+B6NLOlNj0pwPdavXq12ud5SO6yNxANbkzEHRs/frxKsANZkWYS7bkJ5ufPn1VJo0ukJ4Nh5WYHDx5cF8lXFTMlQyRc5uAsCSJ22g8rR3uieIgt8JVRCNwTlgDoDZQhkg2jTbpzxI+UDX9T/BgZesWGb9KTX9KbycOvdIn4kbJJW1FyTLsKkmyXLc395rrgAW/Yq1ev/oh4eeOuXr2q9vELi0ouuwatQZco4IcdOnRI7fc2SJr/+PGjrq0kA4KJxyoKWMCPHz/+cb4n/EocOcHLR05QzB1BQW804XmRm4/5t0M3I0IJzIy0KZRoKxLj4rNXAS+YOYDpkz770MdMZdIageuTesJNqgpeMB2DX8kgZMCvpK/ZNvTcVA0vmA7Br2T2I+BXMoXBNvyHjEqqEl4wHcIABhEaekJcZBskmwFkOyoDUbnHPpLXY2P2pW06YwZBc64q+HSRA/Ar8SWldycv6OO3HVgVhTfllhG/Mm+hrBpeY1qG1I1E4XlTpab0gmkZuuAkkZ43vbWLMw4vmJ5S4gXTMbKqCKtd+L7xxvHBj0MYo0hXIZsNoWSCn0yDtTnNuYx4wXQIs0LphpTprlnZtWtX17WSluCpCl4wHcL0DAKSNEu9yIKpScho/9GjR6uyqngf0xGmqWViWyNziBi2xhz96LRnE6YykCNFG+MeMDXj7du36jMm+aWZu11mvGA6gCT7gwcP1IIPIEIkyGjvKPR707fO0DjBHCUuI+CZwCYzTgmuZLYlv3MxeqkQEEyPfVihl8fLQllRzHk/PW1m/7f0vzNHCpgzxfWZJxWdq9/b8T6mI968eaNKViSJglYLn33dxro+DI1Du5rnzb5vTDxg7knks0QPXLt2rbTrMjWLF0xHmELUE5h+1uwkSOourSQDgnERxE1godkqTt7zPqYjmBuPvxi3bk+025IlHfkua/7ISnmCBE4IL4veAlpVJrY1tS5QbwDB9NgF349Hm/R4m/ExKTlu1Wv8MMaTYxdjPcuAN+UOkHVASa4Dy/sRUQumjxkGNOocYynlnLmJjylRvCTWpZQuT7QwW1XwgukAMbks5UfCXIQnDswx6Z+eBvjKAquSWOf7/I7f4zaIz1kVvI/pCLQkWo6kN2tRJgU1CG0jq1RIwp5ByHIttDD/AwROVfI1vWB6Sok35Z4SEgT/AXozrRcRVzQlAAAAAElFTkSuQmCC;" parent="WIyWlLk6GJQsqaUBKTNV-1" vertex="1">
          <mxGeometry x="2215.2" y="380" width="99.61" height="45" as="geometry" />
        </mxCell>
        <mxCell id="uBlw1acnTJKu4JBWq5QM-125" style="edgeStyle=orthogonalEdgeStyle;rounded=0;orthogonalLoop=1;jettySize=auto;html=1;exitX=1;exitY=0.5;exitDx=0;exitDy=0;entryX=1;entryY=0.5;entryDx=0;entryDy=0;entryPerimeter=0;" parent="WIyWlLk6GJQsqaUBKTNV-1" source="uBlw1acnTJKu4JBWq5QM-123" target="uBlw1acnTJKu4JBWq5QM-76" edge="1">
          <mxGeometry relative="1" as="geometry">
            <Array as="points">
              <mxPoint x="2550" y="390" />
              <mxPoint x="2550" y="205" />
            </Array>
          </mxGeometry>
        </mxCell>
        <mxCell id="uBlw1acnTJKu4JBWq5QM-126" value="Да" style="text;html=1;align=center;verticalAlign=middle;resizable=0;points=[];autosize=1;strokeColor=none;fillColor=none;" parent="WIyWlLk6GJQsqaUBKTNV-1" vertex="1">
          <mxGeometry x="2430" y="358" width="40" height="30" as="geometry" />
        </mxCell>
        <mxCell id="uBlw1acnTJKu4JBWq5QM-129" value="Метод не применим" style="strokeWidth=2;html=1;shape=mxgraph.flowchart.start_1;whiteSpace=wrap;" parent="WIyWlLk6GJQsqaUBKTNV-1" vertex="1">
          <mxGeometry x="2450" y="480" width="100" height="60" as="geometry" />
        </mxCell>
        <mxCell id="uBlw1acnTJKu4JBWq5QM-130" style="edgeStyle=orthogonalEdgeStyle;rounded=0;orthogonalLoop=1;jettySize=auto;html=1;exitX=0.5;exitY=1;exitDx=0;exitDy=0;entryX=0;entryY=0.5;entryDx=0;entryDy=0;entryPerimeter=0;" parent="WIyWlLk6GJQsqaUBKTNV-1" source="uBlw1acnTJKu4JBWq5QM-123" target="uBlw1acnTJKu4JBWq5QM-129" edge="1">
          <mxGeometry relative="1" as="geometry" />
        </mxCell>
        <mxCell id="uBlw1acnTJKu4JBWq5QM-131" value="" style="verticalLabelPosition=bottom;verticalAlign=top;html=1;shape=mxgraph.flowchart.on-page_reference;" parent="WIyWlLk6GJQsqaUBKTNV-1" vertex="1">
          <mxGeometry x="1245" y="325" width="60" height="60" as="geometry" />
        </mxCell>
        <mxCell id="uBlw1acnTJKu4JBWq5QM-132" value="&lt;span style=&quot;font-size: 19px;&quot;&gt;A&lt;/span&gt;" style="text;html=1;align=center;verticalAlign=middle;resizable=0;points=[];autosize=1;strokeColor=none;fillColor=none;" parent="WIyWlLk6GJQsqaUBKTNV-1" vertex="1">
          <mxGeometry x="1255" y="335" width="40" height="40" as="geometry" />
        </mxCell>
        <mxCell id="uBlw1acnTJKu4JBWq5QM-133" value="" style="edgeStyle=orthogonalEdgeStyle;rounded=0;orthogonalLoop=1;jettySize=auto;html=1;" parent="WIyWlLk6GJQsqaUBKTNV-1" source="uBlw1acnTJKu4JBWq5QM-134" target="uBlw1acnTJKu4JBWq5QM-136" edge="1">
          <mxGeometry relative="1" as="geometry" />
        </mxCell>
        <mxCell id="uBlw1acnTJKu4JBWq5QM-134" value="Цикл i&amp;nbsp;&lt;div&gt;&amp;nbsp;от 0 до n&lt;/div&gt;" style="shape=loopLimit;whiteSpace=wrap;html=1;" parent="WIyWlLk6GJQsqaUBKTNV-1" vertex="1">
          <mxGeometry x="1944.81" y="1100" width="100" height="80" as="geometry" />
        </mxCell>
        <mxCell id="uBlw1acnTJKu4JBWq5QM-135" style="edgeStyle=orthogonalEdgeStyle;rounded=0;orthogonalLoop=1;jettySize=auto;html=1;exitX=0.5;exitY=1;exitDx=0;exitDy=0;entryX=0.5;entryY=0;entryDx=0;entryDy=0;" parent="WIyWlLk6GJQsqaUBKTNV-1" source="uBlw1acnTJKu4JBWq5QM-136" target="uBlw1acnTJKu4JBWq5QM-138" edge="1">
          <mxGeometry relative="1" as="geometry" />
        </mxCell>
        <mxCell id="uBlw1acnTJKu4JBWq5QM-136" value="Цикл j&amp;nbsp;&lt;div&gt;&amp;nbsp;от 0 до n&lt;/div&gt;" style="shape=loopLimit;whiteSpace=wrap;html=1;" parent="WIyWlLk6GJQsqaUBKTNV-1" vertex="1">
          <mxGeometry x="2095.2" y="1100" width="100" height="80" as="geometry" />
        </mxCell>
        <mxCell id="uBlw1acnTJKu4JBWq5QM-159" style="edgeStyle=orthogonalEdgeStyle;rounded=0;orthogonalLoop=1;jettySize=auto;html=1;exitX=1;exitY=0.5;exitDx=0;exitDy=0;entryX=0;entryY=0.5;entryDx=0;entryDy=0;" parent="WIyWlLk6GJQsqaUBKTNV-1" source="uBlw1acnTJKu4JBWq5QM-138" target="uBlw1acnTJKu4JBWq5QM-141" edge="1">
          <mxGeometry relative="1" as="geometry" />
        </mxCell>
        <mxCell id="uBlw1acnTJKu4JBWq5QM-138" value="" style="rounded=0;whiteSpace=wrap;html=1;" parent="WIyWlLk6GJQsqaUBKTNV-1" vertex="1">
          <mxGeometry x="1934.81" y="1220" width="260" height="60" as="geometry" />
        </mxCell>
        <mxCell id="uBlw1acnTJKu4JBWq5QM-139" value="" style="shape=image;verticalLabelPosition=bottom;labelBackgroundColor=default;verticalAlign=top;aspect=fixed;imageAspect=0;image=data:image/png,iVBORw0KGgoAAAANSUhEUgAAAYwAAABTCAYAAACMJjAEAAAAAXNSR0IArs4c6QAAAARnQU1BAACxjwv8YQUAAAAJcEhZcwAAEnQAABJ0Ad5mH3gAAAvaSURBVHhe7d3Nq9zUG8Dx9PcHVGx3YkXULooLRWoVEUEXtlUogopvG8GF1EWXVhR3Vq2UCkVrLRVc+IoWinB9XQi+IbYViwuh9YqIuKpK+w/c33zPzVPT3NyZc2cydzL3fj8QMsnMZDInJ3lOzjlJ1sz1FJIkDfC/cixJUl8GDElSFgOGJCmLAUOSlMWAIUnKYsCQJGUxYEiSshgwJElZDBiSpCwGDElSFgOGJCmLAUOSlMWAIUnKYsCQJGUxYLTs448/LtatW1dOSdLKYcBoyd9//10888wzxd133138+++/5VxJWjkMGC345ptviptuuqmYnZ0tLr300nKuJK0sBowWPPfcc8XRo0eL9957r9iyZUs5V5JWFgNGCz799NPiuuuuK6ckaWUyYEiSshgwJElZDBiSpCwGDElSFgOGJCmLAUOSlMWAIUnKYsBoEbcH+fXXX9Nrrv6WpJVkzVxP+VpD4h5SJ0+eLD777LNyzrzNmzcX69evTxf2SdK0M2BIkrJYJTWlfvvtt+KJJ54oHnzwwXLOvDVr1lwYqCKTtHps27ateOmll8a27xswphA3OaS6i/tX8brq7NmzaRzVYZJWj7fffrs4d+5csXHjxuLUqVPl3PYYMKYMD2h66KGHioMHDxaPP/54Ofc/ESTuvPPONJa0erD/79mzp3jhhReK22+/vfWgYRvGFOE0k5LDzp07U6ZoQga5/vrri5mZmeKuu+4q50pabaie4phx/Pjxcs7oPMOYIm+88UZ6mt9jjz1Wzlno+++/T2Me6CRp9dq1a1dx4sSJBdXWoxhLwKCUS3Sj4bXaKEu0i/lUrWhpXnzxxWLr1q3FVVddVc5Z6Msvv7zQfkHjF88XJ73p+tt15BvySzTak1fI7ON8Rjp5ks4D/N4111xzUWMhaTYtaddlkcaRF0lntuuNN944ddcrxT7FUF33yKf8p66ghoEngB47dqyc0wKqpNr2wAMPzM3Ozs7t3buX6q65n376Kc3vHezSNMPZs2fTvFF9/fXXF5aZO7Be04Y0zFn3q6++eu7pp59OA2kDtgffje3QRaxbL3PP9YJdyjuI/MN/GpdIp8hHhw4dSvPjtxlmZmbSPC0d+znblG0b+bG6z8a2ngbkA/IF/4n/w36F6v8hP3VJ7PttGUvACHGQYyckock4XT5odRlpSFr2O3ix8/GZ6s4JvsP8QcFmUmIHJDBUCxKxI+7cubOcM15xEOB3ed3lQMG+VE8vkFase30/e/fdd1NaMl5OUUisrw/zxlkQGDfyCekceber+1YUfKrHg1GMtQ2Dbp+9xCyOHDmSqlOm5VGmUSUyqaEJXeWwdu3aNG7yww8/pDGN4rfeemt6jX7f6YJom+HZ6E1dgW+77bby1XjRs4w63x07dhQfffRRZzsNUBXCevYKCMUvv/xSzp332muvpbSs33XgzTffvGi8HFhP1oP82LTfT3NPPnogkc5Umz711FPFk08+Wb7TTX/++Wf5ajRjb/TesmVLytzUrU/LdQG9QDrRYVg///xzGtcbxb/77rs0vuKKK9J4VE1Brt/ATtXP4cOH07h+EWKs96ZNm9J43G644YZ0EKZLYjXgjop676Z06Tf0q9tn3Win6pXQF6QNB2cKabR1VT366KMXjZtE++JShn7eeeedNH744YfTOMR/m+bn4F977bVpzDboerDAH3/8Ub4azVgDBo1d0Yh4+eWXp3HbyHxNGbnfwA68En3++efpQFJvFP/xxx/TuK0Db1OQ6zcMupcWB+n6AQ4ffPBBOvgNc2Ah37GdaYRkm9MgOajx+vfff0/jDRs2pHEdeY2gxrJYJsvO6efOAaUpXfoNgwIWXSW50WW9EMb1Of/888+CNGO9WW49KFexnerrMWjoh7sRoP5fPvnkkzS++eab07grqnlmkCixEzCWG/kwOoQsu95GHwvq9qhnjUYXGw5HM6gukvTm/Xp9f8xnW3RRtFNQ110V86NhcamizSwaVSP9FqvDJ90iry7WcMl70SjOcqmDn+Z6+HEjvRiqos6foUvIF+RB1queF+v4LNud/LWc+xV5jnzKb5KuOe0Sg/L9Uo3lDINITQQk+r766qtp3rfffpvGVURKuthRYqM0QsRkmtKb3W4vdskll6Tx+fPn07gu6rKvvPLKNA779+9P45dffjmNSeeoeiCNKSFHKXwS3Ucvu+yy8tV/yD+vvPJKek01UVVunqFUTyk8zraimi7agqro8snZGXm1tzOm1016+8uFq+tZbi/ApNK8mjWVvp999tm07aiqrsrNl+M6ZpAvOMOiPaIffo87LRw9evRCm1fUogSmq12ymY7u4jlnL4v566+/Uv4b5kK81mp45uNGe4i8LJYxpQkQEZkGEZJIyXuU5Kol4yi98flBUX61iRI3JYYmUZIg7UhThphXLTHzmvQnfSlRxzZgzGcngbxByY71iHWjRBT/l3ms6+nTp4fOMyyP32BZge+zHIboxRPpwOf4Tr+SGevN59Us0pe8yzZjOrYD2yrmkfak46B8GdPDbP9c5Lem5UR+ZIjfjN6HvBf/AbzPf2ZZrBfryX+Lz+ecGQySuxz+C58lzdrQ6hGCRGHlSKRqN7pIKDJKfQeM75C4gR2xOq15pB9p24SMQUYlc/K52A6LVQWSxtUdg++1scMNg7zC+rDOHCzIE2D9Y141Py01z8Tyq8sA80irahqx7Ei/OAA0Ib0YtDgOUnHAYlvGAS6CQFP+zMmXOduf3+Iz/YamAy7LaNoPWA++U89jkUf5Tv2gzHfISzE/gk5VpM9iQ9O6gPdyAga/z/7TlskUKSsiESNRIzPkJMZqQ2YlbeKAOqxI4+rO2u+A2zVLyTOLBYtRGCzGIzdfjvOYsVjAGAbrXi10NAW/YeX8X9KRz9UL6aMYe7faQb766qvUQyZ6e3zxxRdp3Ga3xpWCevheiaHYt29fOWc4cb1GXGdAfXFvpytuueWWNN11uXmG/3Xvvfem+ua2unDS3gF6I6lduflyGo4ZtK+w7tu3by/nzLd/3HHHHeXU+B04cCC1yfXrGbdUEw8YNDBWE5FMQmYgwSfRCNtl7CBvvfVWujiLzDes2OFCNJjT7TYa6bosJ8/wH7i4igvVIljQKDpKl2q+y29Ug8UojZi6WG6+HNcxg+XTBZ3AxbJGEcEvghjL40I/gt/rr7+eGu+HFd+N7slNyKusAxdNt6o805iIplPQOI3qZYD0vhbiFJO6yWGrkOqnyqQzy2N+16sCc/NM1DnXh2HTLH63aVA7cvJl7vZfKr5b3aYxDIv8R/tGFdP8n2g0XyrSoGkdq3maajp+m99psxo2+DyMASi9cOXv+++/n6YpyXC1LFUTk+xSSYmFqinWYZSzDUkrB12TOfui+rp+UWcbDBh9ECyo1uiVcFLAoO89p3q7d+9O87jSVpJWi4m3YXRV1IGvW7cuXdATF4BFA5yPQJW02hgwFtGVO6hKUlcYMBbRlTuoSlJX2IaxCO77QgN3/U6rdKOcnZ31HkKSVh3PMBos1kea+dxszPYLSauRAaPBUu+gyoU4NI7HRVxcPMQ0Q1wAxPeZ3/YdLCVpuRgwGtAjim6zXCnJgZ2D/iOPPFLcc8895Sfmr4PggD8zM5OmeaQnZx8EA24HcObMmdRo/uGHH6b3GTN/79696UpVbvP8/PPPp+/zvVGu/JSkZUEbhhaKm9aRRDl3UI0botWvSK1fOR1XYfa7g6UkdZGN3i3hym8ebBIPN4kHrdSTl4e99IJNsWfPnjTN9zhbGfQYU0maNKukWkI10/33319OFcWxY8cuupEaCAz0sJrkHSwlaVgGjBZEIKjehpl2CQIBbRM0imOcd7CUpHEzYLQgAkH1Yj6qnbjnFLcgvu+++9I8bt/M/ekDjetM79ixI037DBBJXWYbhiQpi2cYkqQsBgxJUhYDhiQpiwFDkpTFgCFJymLAkCRlMWBIkrIYMCRJWQwYkqQsBgxJUhYDhiQpiwFDkpTFgCFJymLAkCRlMWBIkrIYMCRJWQwYkqQsBgxJUhYDhiQpQ1H8HzED3n4kbWb3AAAAAElFTkSuQmCC;" parent="WIyWlLk6GJQsqaUBKTNV-1" vertex="1">
          <mxGeometry x="1944.81" y="1225" width="238.55" height="50" as="geometry" />
        </mxCell>
        <mxCell id="uBlw1acnTJKu4JBWq5QM-140" value="" style="edgeStyle=orthogonalEdgeStyle;rounded=0;orthogonalLoop=1;jettySize=auto;html=1;" parent="WIyWlLk6GJQsqaUBKTNV-1" source="uBlw1acnTJKu4JBWq5QM-141" target="uBlw1acnTJKu4JBWq5QM-143" edge="1">
          <mxGeometry relative="1" as="geometry" />
        </mxCell>
        <mxCell id="uBlw1acnTJKu4JBWq5QM-141" value="Цикл i&lt;div&gt;от 0 до n&lt;/div&gt;" style="shape=loopLimit;whiteSpace=wrap;html=1;" parent="WIyWlLk6GJQsqaUBKTNV-1" vertex="1">
          <mxGeometry x="2285" y="1100" width="100" height="80" as="geometry" />
        </mxCell>
        <mxCell id="uBlw1acnTJKu4JBWq5QM-142" style="edgeStyle=orthogonalEdgeStyle;rounded=0;orthogonalLoop=1;jettySize=auto;html=1;exitX=1;exitY=0.5;exitDx=0;exitDy=0;entryX=0;entryY=0.5;entryDx=0;entryDy=0;" parent="WIyWlLk6GJQsqaUBKTNV-1" source="uBlw1acnTJKu4JBWq5QM-143" target="uBlw1acnTJKu4JBWq5QM-145" edge="1">
          <mxGeometry relative="1" as="geometry" />
        </mxCell>
        <mxCell id="uBlw1acnTJKu4JBWq5QM-143" value="&lt;font style=&quot;font-size: 8px;&quot;&gt;&lt;img alt=&quot;&quot; src=&quot;data:image/png;base64,iVBORw0KGgoAAAANSUhEUgAAAF8AAABFCAYAAAAsAToIAAAAAXNSR0IArs4c6QAAAARnQU1BAACxjwv8YQUAAAAJcEhZcwAAEnQAABJ0Ad5mH3gAAASxSURBVHhe7ZvPK7RRFMfvvH8A+bGSFRYUkR8ppFggKxshZc9SUmxslFjKAmVNWY9kQRkpPxJFViys/fgT5n2+Z+5h3nnnMfN47jz3feeeT93O3GNSz/e5c+65594bS3oowQq/tBUsIOJbRMS3iIhvERHfIiK+RZwW/+zsTMViMWodHR3aGx1Oi9/T06Pi8Th9HhgYIBslzoedkpISst3d3WSjxHnxHx4eyHZ2dpKNEufFPzk5Ue3t7aqiokJ7osN58Y+Ojijev729qZmZGZp8y8vL1d7env5G4XC6sPb8/Kxqa2vV7u6uOj09VXNzc6q0tJRC0Pv7O7WCAvFdxRMdAy/pvYDk6+ur9iaTi4uL5E8kEtpTGJwOOxjtYH19/Y+Yj9EfBU6Lf3V1RWFneHhYe1IcHx+TraqqIgvW1tZoPjCJs+Jjgr2+vlZjY2Pa88Xl5aUqKytTNTU12qPUzc2NGhwc1D0zOCv+xcUF2aamJrLMwcGB+vj4UNPT09qTAtnP4eGh7pnBWfHv7+/JVldXk2WWlpZo1M/OzlL/7u7us/6DWpBR9MTrHF4IoYzGG+HUf3p6SnohiHzxeJx8DGdFpnF25COuI79HLo9RjYkX3N7e/jUBv7y8GI/3QE4v5AHKzaOjo2p+fl57zOB0qpkPnBU1NjZqjzlE/Bw8Pj6Sra+vp9oPShKmEPFzgIUWsh9UPnt7e//I/cMiMd8iMvItkrf4WPnV1dVRWra1taW9qUUI+zE5CQFA2MkFFiBYjKDsisWJFwPJjz4+4994MZF8P4EXPEFaMRD4KTY3N+nhvcUIiYZVYXotXMifwBMuwkxLS8vnvqfpYlOhQFgsJAFlJH6U7fByHJVBv43noaEhsv/Ly7FB4GwHIx95L9p3O/6onfT39+ve9+BF4YUGaUUBRn6+IM5jguXqn8T6cOQ98jHi+/r61MrKipqamiIfb0ikgzS0qEZnIdEvwRekmfgaGkY8wIhHn9NP9jPwIxMSvien+LyRkJlS8vEKHLtAOEoHwq+uruqe4Ifx2g5WuZWVlSqRSNApYMEf47UdngcaGhrICv4YFx8b07wlNz4+TlbIjnHxsePjTdJ03nFhYUF7haxQ5HcMJAi8VkFDgoDEgguGUWF85P/r8HoFv040TwNaiU9MTNDR8ChxSnxkYhAeIqPmxFuCXV1dZKO+l+WU+Ds7O3QUcHl5OWtdCnu0UeKU+Nvb22Qzs7Dz83Oy2dLjbKeT+Qpp2OODTomPGO9Nrrr3xf7+PlVpm5ubteeLbKeT+RJd6EVkat4tfnDLBI+bWXNif2Z9KgqcGfnpFx0YTMAbGxv0ubW1lSyDrIirs+nhBZM1fAhHYXFGfGQ2WHljkwei4+TZ5OSkGhkZ0d9IXZDDfIC/IwThIC1IDy84Ogg4QwqF/gU4ARZXqMLisRFmUC4HOHnBvvQKLSqzfmHKBE6ucPMFLyWzNI5SeuYL+SlOZTtBQOjJdjoZl6bb2tp0Lxwivg9+p5PxQnCPC3e0Qt9S178AIQPMByi0oaHoxvD8gPATFjmlbBEJOxYR8S0i4ltExLeIiG8REd8iIr5FRHyLiPgWEfEtIuJbRMS3hlK/AQqzL+2gCxA/AAAAAElFTkSuQmCC&quot;&gt;&lt;/font&gt;" style="whiteSpace=wrap;html=1;" parent="WIyWlLk6GJQsqaUBKTNV-1" vertex="1">
          <mxGeometry x="2280" y="1230" width="110" height="80" as="geometry" />
        </mxCell>
        <mxCell id="uBlw1acnTJKu4JBWq5QM-144" value="" style="edgeStyle=orthogonalEdgeStyle;rounded=0;orthogonalLoop=1;jettySize=auto;html=1;" parent="WIyWlLk6GJQsqaUBKTNV-1" source="uBlw1acnTJKu4JBWq5QM-145" target="uBlw1acnTJKu4JBWq5QM-147" edge="1">
          <mxGeometry relative="1" as="geometry" />
        </mxCell>
        <mxCell id="uBlw1acnTJKu4JBWq5QM-145" value="Цикл i&amp;nbsp;&lt;div&gt;от 0 до n&lt;/div&gt;" style="shape=loopLimit;whiteSpace=wrap;html=1;" parent="WIyWlLk6GJQsqaUBKTNV-1" vertex="1">
          <mxGeometry x="2465" y="1100" width="100" height="80" as="geometry" />
        </mxCell>
        <mxCell id="uBlw1acnTJKu4JBWq5QM-146" value="" style="edgeStyle=orthogonalEdgeStyle;rounded=0;orthogonalLoop=1;jettySize=auto;html=1;" parent="WIyWlLk6GJQsqaUBKTNV-1" source="uBlw1acnTJKu4JBWq5QM-147" edge="1">
          <mxGeometry relative="1" as="geometry">
            <mxPoint x="2655" y="1240" as="targetPoint" />
          </mxGeometry>
        </mxCell>
        <mxCell id="uBlw1acnTJKu4JBWq5QM-147" value="Цикл k&amp;nbsp;&lt;div&gt;от 0 до n&lt;/div&gt;" style="shape=loopLimit;whiteSpace=wrap;html=1;" parent="WIyWlLk6GJQsqaUBKTNV-1" vertex="1">
          <mxGeometry x="2605" y="1100" width="100" height="80" as="geometry" />
        </mxCell>
        <mxCell id="uBlw1acnTJKu4JBWq5QM-150" style="edgeStyle=orthogonalEdgeStyle;rounded=0;orthogonalLoop=1;jettySize=auto;html=1;exitX=1;exitY=0.5;exitDx=0;exitDy=0;entryX=0;entryY=0.5;entryDx=0;entryDy=0;" parent="WIyWlLk6GJQsqaUBKTNV-1" source="uBlw1acnTJKu4JBWq5QM-151" edge="1">
          <mxGeometry relative="1" as="geometry">
            <mxPoint x="2625" y="1446" as="targetPoint" />
          </mxGeometry>
        </mxCell>
        <mxCell id="uBlw1acnTJKu4JBWq5QM-151" value="" style="rhombus;whiteSpace=wrap;html=1;verticalAlign=top;labelBackgroundColor=default;" parent="WIyWlLk6GJQsqaUBKTNV-1" vertex="1">
          <mxGeometry x="2305" y="1376" width="240" height="140" as="geometry" />
        </mxCell>
        <mxCell id="uBlw1acnTJKu4JBWq5QM-152" value="" style="shape=image;verticalLabelPosition=bottom;labelBackgroundColor=default;verticalAlign=top;aspect=fixed;imageAspect=0;image=data:image/png,iVBORw0KGgoAAAANSUhEUgAAAMsAAABCCAYAAAD5RCIjAAAAAXNSR0IArs4c6QAAAARnQU1BAACxjwv8YQUAAAAJcEhZcwAAEnQAABJ0Ad5mH3gAAAqdSURBVHhe7Z1tbFPXGcf/CelWdYEyxAT2Mg1BasPkCFZHpRudapLhoMFWlIxOo8NBzrpuqsokFpwl6zpV6rKGROn2Yeq6zRmB7q1wLVg/TAmzST+gEpREsESlDgGlbXpNBEqBRG1hsc/Oub7OS0vi69iJ7819ftKR731uHPuc8/zPfc7bdQ7jgCCIpOSqrwRBJIHEQhAaIbEQhEZILAShERILQWiExEIQGiGxEIRGSCwEoRESC0FohMRCEBrRtNylv78fdrtdOc7k6piRkRF0dHSoZ3HKy8vVo9kR36mvr089A1atWoUtW7aoZ8ZDr/kJBALqURyXy4UVK1aoZ5P4fD40NjZCkiTNdWg0snpnuX79OioqKnD27FnVMjfE/zh58qR6ZkyEUEQ+ZFlWLfpC1JH4fqLOzIouwrCHH35YaY1SaZFsNlvK7zECbrdbyZNe7pKJMhZ1ZHaM02eJvY2WMitych5HS//HqtGcxPpbUJaTg5yyFvTHVCMx7xhHLGMywr0RwFKINas/oxrNSAxjQwPo5UeWTWuwOiM1eAeR7gCaKotQ2NSNcdVKTMc4YllWggaZgcn1KFlmnK+deXJ5UdRDZgxyQwmWqda5wYXXH0JLzbdhLa7AwSOTAwzEpzGz15mcO3g/sB82VytGNh+A9Jsdqp2YCf2LZbwbTYU8Phcxek4xakLmHY0Z725CoVIOPFnrELqVToclD/c7nkRH/19QXV6Kr9kKVDsxE/oXS54T1T1B+CziZC3sBfmK2YzkOQ+gJ1gLpSiKClGQn0715SLfthG2tP6HuTBWSa17CBvX3quemJt12zZiLfn5gmKI4o5dHcR5MRBW8SAeyFONpuQOrg4OIAInKh78Mg+kVKaFqsnSjxGI0HjXXDCAWMYx3HcO7Tz4KLJbYd4gTHANfW/08NdPhKMiVB1gylKk5OkPKLeYusWZMwYQyw1c7Ozir3Zs21hgsLgxw9y6hM5TlykczRL6973xd9AjdfMDO9Zaze0g45d6IPFwFFvWwko3hwVH92KJXbkA0ZjC/RAcq8zsIR/jyoVzuMzDUfejX8Eq1ZoRxt7Gv0+eUQ4/7O3DwJie19DcQn8ogJaany34siedi2U+lnYYlTEMha/wVys2rVmZkYqbmLdZWoQqdfY+cmQfNixdgpycrWjqHlNs2UesNOhAoKUGW3Puh720AlWH3lOvLRw6d78PcannTUSwDts2P5Dm0g6DMxGOFmPzhuVxW5rkOasxcNdBAJFOo9qZ5eGUsX6EAn9CzdYCLLVvRUXVIXRYPGg8dgLB8J/htS1sWJ4ZsfBMnWqqhFUZmixDXeh93hYkEK1CgGd45hXDYp9EYmhzGrEhXDgV5reV7Xhs8/TAQ2xKuut7sorIa5uyIFH5blufRyhyR70m4CFEoI63jvzaDCuGxSY78V6xmWoqiXDU4nVj8wKGo4kyFnW0MCTCrDJ+x7OjtOJHONRRBJ//GE50yYjKraj+7mMosc2h6RTiO96ESms8T/FUhMqmv+Fkd2SKz84Ab0WSEg6HxfZIJX2aD1hX8y9Zc6fMoqOdrNFlYbDUsuDNqHI1OiQxryX+3qn25NxkF/1eZoGFuRo72ahq1TU8/82+l1mn/BEb7WpmLp5niy/IcyK4zYakp3l+4mUxadfAaC/zexz8fTtYY9cHqlFfHDx4UMmXJEmqJRWibDR8mkl+n1JmcV9zMy4QxgXCr2aACd/0xH1V2KIy62z2KD7m9l9M+jkZEMtUPmJh/27+d7uZP/yR+gWdzOPvZTfDfuZ2+1k4ac7fZZJnXfzzeMYa28PGEMoniV5kfjevHCXP3BmEeCxe5r84zMtoj6bKYbLEPGq5WzzNrD2sWV4LztzEcpOFg37mE06s5NPBPI1/ZVIw03We8Mu7iOJmkPksTuYLXlMNM5NhsUT5Z9dypYoPD7Ouxl3MVdvO5KResRi5xoI+Z/xuOvQmbzR2sNrgUHKBGJQ5iSXRoAjf0tSQzpWEWLSJYiYy3MHPRX5BIYog41zr86jr3YWX60ph0ckwwsQOw7mklHcl5qPAvhaIvInWugb07n0RdSVf1PuIysKSa8UjNS+A31mA9irYl8T7D4FQPzI7DncvbI8/B7/nNo62/hPnpvUjtZPxusst/Dq+5wY6Tn0eT9V/H+tNu6r1XhQ+sh1udOBU3l7U73OYfKnO3VgGW4kXDaeHwPsskPzfwrsHn0BFqR1Lc8pQ03JcW8dbC/kO7HuxGfve/TU2Wz+rNoKpbfnIuCfHIm/hjNj+ywti+VJ9TSLm2rxomzY8mkJq88KWUmndQaSvR5kjwsrlWEq3lFkQ2wVcKPc24DS7iXBQgt8HHKrajV3FVixJVzhjbyNQU4Ylzlex4pnXwbsFar12oaFkpfpHyclsFY714XDdP7B87x5YIu1o6xpRL8zAxGrZxbYSNsbr5++oewXY63EgcvQ/6EqyUWtigrAyANHUmBdxtymHt6ENbDSMoPRHHqb1TgrHWomm4ycR6r+l/n0SYu8g8NPdqDh0Dxpf/x2qy51z7hZkTiyx9xGq/zmOFlXjV1WlSr/l/OD1WVuCxbqUJRYJov4nJ1BU/wtUPbqB91sGMHh1tjh5HpeyGJl8G0rKn5wSpvngihzBwd27UGr/oablLrGBIF5p6eM+Vo7vfDW9ydz0xCIeT7TzOYRuvIfQs178YNiLVw88hGWr12CTJYLesDxrR20iLEo5xNEfYvBgZ00INyKn8OyeWgw/81sccK7C6jWFXAJXEB6arSR4B9T7Gg8LZLR512f4dr8YuFuY9iX12gLCY7ekzDh0rIxRx+2wPM2kodvqhcSwadwWldtZrffwPA4NZpvEkHm8LCxeiQ0l8qqWUdx2m8nBF5hXyxyLwUhvUnIeiQ4yySsmdB3KfN/k/I2Y45GY37ebeaVBTfWRlliiYqJR2F21TJo2YRZloxcPM48iJAtz+Y6wLjkhJM6UybaJCUxDMznp5fJJLDw6tegTKxFEXt3Md7hzyrzT/3hRPKWWA0/zOtcwv+hWLIKozLqkRtUf1SQmvI+dYMEUJnrTu7OkQ0IwKS2BWYxMCialJTA6I+1JyZTTwjeyWQuPY6M3cFUcbCvGBlM/NG8cozfEqCGtrNY7WfLSxD4VGv3BxD6VB/Go4wtxk1nIXQ9vmyzClTmk1wy6RD9lRtDV1o5IBjcyGZZb/0Xb0W7e3TH7M5z1T3b8NHYdg+dl7iBulBV/+odxzMTEY572fhPFpg5H9U92amf4LbzRzj0k7acqGh16zJORyIqnjstXoDweYfVyfG74DF6qfAJN3TeUa+biY8hXwvz1Pl4U92D43O9RWfYSunX9wAjzkhWx5Nm3o87jAI5UoGDPv7BifxMOODOzr9xY3Af7zn3wWC7zovgG9kjLsP/w03DS84d1SXZqJd8Bb2tvfFTjdAMqnZYsfZFsk4v89ZVoFb87w2ScbtgLp4U6+XqFmjCC0AiJhSA0QmIhCI3k8H6DWGszKyMjI+jo6FCOF9tPaROZ4cyZMxgeHobD4VB+dn0xokksBEFQGEYQmiGxEIRGSCwEoRESC0FohMRCEBohsRCERkgsBKEREgtBaITEQhAaIbEQhEZILAShERILQWgC+D/vf81Tpi0SLQAAAABJRU5ErkJggg==;" parent="WIyWlLk6GJQsqaUBKTNV-1" vertex="1">
          <mxGeometry x="2354.26" y="1420" width="141.48" height="46" as="geometry" />
        </mxCell>
        <mxCell id="uBlw1acnTJKu4JBWq5QM-157" style="edgeStyle=orthogonalEdgeStyle;rounded=0;orthogonalLoop=1;jettySize=auto;html=1;exitX=0.5;exitY=1;exitDx=0;exitDy=0;entryX=0.5;entryY=0;entryDx=0;entryDy=0;" parent="WIyWlLk6GJQsqaUBKTNV-1" source="uBlw1acnTJKu4JBWq5QM-153" target="uBlw1acnTJKu4JBWq5QM-151" edge="1">
          <mxGeometry relative="1" as="geometry" />
        </mxCell>
        <mxCell id="uBlw1acnTJKu4JBWq5QM-153" value="" style="whiteSpace=wrap;html=1;" parent="WIyWlLk6GJQsqaUBKTNV-1" vertex="1">
          <mxGeometry x="2520" y="1240" width="270" height="60" as="geometry" />
        </mxCell>
        <mxCell id="uBlw1acnTJKu4JBWq5QM-154" value="" style="shape=image;verticalLabelPosition=bottom;labelBackgroundColor=default;verticalAlign=top;aspect=fixed;imageAspect=0;image=data:image/png,iVBORw0KGgoAAAANSUhEUgAAAncAAAB5CAYAAABbXwc7AAAAAXNSR0IArs4c6QAAAARnQU1BAACxjwv8YQUAAAAJcEhZcwAAEnQAABJ0Ad5mH3gAACbDSURBVHhe7Z1dyBTXGcfX3jWVojWhUBr7EahGSr6oEkhCSpHEQCGS4oUSWsGYm9aAFzaSCCYQg20uBG1vtEIsohfWYqFgLMFGYktJg2+UYpJCbKMlkESbXoiF3qT7O87/zXHemd3Z3fnYnf3/4DCzM/sxO/Occ57znOd5zrxPu3SMMcYYY0wr+FyyNcYYY4wxLcDKnTHGGGNMi7ByZ4wxxhjTIqzcGWOMMca0CCt3xhhjjDEtwsqdMcYYY0yLsHJnjDHGGNMirNwZY4wxxrQIK3fGGGOMMS3Cyp0xxhhjTIuwcmeMMcYY0yKs3BljjDHGtAgrd8YYY4wxLcLKnTHGGGNMi7ByZ4wxxhjTIqzcGWOMMca0CCt3xrSUf/3rX8meMcaYcebf//53slcOVu6MaSFvvfVW59Zbb+384Q9/SI4YY4wZR3796193Vq1aVeqAfN6nXZJ9Y0wLYARIQwGnTp3qfP7znw/7af7+97+HLUpg3nuMMcZUC0od7fATTzzR2b17dyntsS13xrSMp59+uvPXv/61s3fv3txGgsZkyZIloRhjjGmOr371q52jR492fvWrX3X279+fHB0NK3fGtIjf/va3oYHYs2dP56677kqOzuX9998PW0aKZVvt/vvf/4brWLFiRXLEGGNMLx577LHQHm/atCm41YyKp2WNaQlMxy5atKizfPnyntOxwHsvX77cuemmm8KosSz+9Kc/dTZv3hwsh+DmxRhjiqHp2UcffbRz+PDhkQbettwZ0xJ27twZti+88EJuo4BVDV87FDtAGSwDvnP16tVBsbvzzjuTo8aMDwxokNN0VCLHHFluxgEG2sy6/O53v+scOXIkOTocttwZ0wIw4999991hxHfs2LHk6FzoxDD/y7J25cqVzpe+9KWwPwp0mIcOHeqsW7cufN+8efPCcTcvZhzAonz//fcnrzqda9eudc6cOXODlZlO9Sc/+UnYN6YpaEsJiEMuR2mfbbkzpgU899xzYbtly5awzYORIYEWwPRtGYod8D10jGV9nzFlgWUOxe7EiRPBpwlwWkexw8qNIzuQjsKYpqEN3bp1a9hnwDwsVu6MmXCwSmDGx2p33333JUfz+eijj8KWaVRj2s63vvWtzqVLlzoPPfRQZ+HCheEYTusE/XDskUceCcdkwTOmaZBJBt/IKYOTYbByZ8yE89JLL4VtP6udUGOxdOnSsI1hOnWQYswkoKCh1157LWyx1ukYih/IqmdM0+Az/cMf/jDsD5uI3sqdMROMrHaM8opY7eDVV18N229/+9thG4OP3CDFmEkBXyZZ52Stg7/97W9h60AgM07gvwxY79JBQEWwcmfMBPPyyy+HbVFHcKJlUQaB6SpjpoW33347bLFwx9Hkx48fD1vXBzNO4Hun2ZhhfO+s3BkzoRD5SsJi+P73vx+2/fAUlJlWZmZmwjZtsVYdWrZsWdgaMy7gRw0E+zAwHwQrd8ZMKEp5gqJWNEpVU1Df+MY3QmNBo1F2jq+4ERq0QTKmKs6ePRu2d9xxR9hC7KyODx7+Tbg6GDMO4GqDyw3uBKTuGQQrd8ZMIFLMYP369WFbhPnz54ctiuHatWtDxGBZ8F2Up556KjnS6Wzfvn32uDFNQX2RhW7x4sVhCzfffHOy1+ls3Lixs23btuSVMeOBAivkglMUJzE2ZgKJk7KSkLXoMjV0crt27er85z//CZ3chg0bRlriJuanP/1pspfNz3/+82TPmHrBOr179+7OggULOs8880xy9DoMkrBoc46OVFG0xowDSlAPuNUUlU8rd8ZMIC+++GLn2WefDVOy+/btS44aY4xpGytWrAhTswcOHJi15PXD07LGTBhY31DsYM2aNWFrjDGmnUihG8S9xcqdMSWC4oVT9jB5iYoSO9Y6ws8YY9qNpmVJY1U0AM7KnTElgR/cgw8+2Hn44Yc7ly9fTo6Wz6lTp8KWMHn7BxljTLu55557kr1O54033kj2emPlzpgRIZ0CkXYEONSxPqWmZFeuXBm2xhhj2gtBb8pNqqTb/bByZ8yQMAX7i1/8orNkyZKQQ4t8RFVD5JSQqd4YY0y7eeCBB8KWlD5F3H6s3BkzJPv37w9pFFiEnKnSrVu3Jmeq49y5c8lep3P77bcne8YYY9pMnHxbS+n1wqlQjBkSLHcUrQ5BJNMPfvCDsP/uu+9WslYl07+M3LASFvW9AOX5agKWeyoavm9MUfrlVawSEnXb39XUCX3NTTfdFPb37NnTdz1xK3fGlETVyl1cuXfs2DEnGWsv8Atk+rgJWPzaCYxN2cybNy/Zq5+qBm/G9GL16tUhYpZgOi0/mYeVO2NKomrlLs5UzlTwY489FvaLIqtfDCPAhx56KHk1OqyWcfr06c6mTZuSI1buTDWQcojI9Bg6vbJljdUrdu7ceUOwlJU70wRKXg9XrlzpvaY4yp0xZnS6ChcDpVC6jX9ytDxG/f5uY/Dp8uXLZ7+DwutLly4l7yiP+Fq7yl1y1Jhy2bFjxw3yTEH2yoY6Ev9GFfXbmH7E7erMzExyNJuJDKggUoRppriME/g3xddWNOmgMb34y1/+kuzduOB5URjl7d27N3l1HawRzz//fJjyLZNHHnmkluhhM91s3rw5WOtisJ6X3SfgX4eV25gmwX9ZXLhwIdnLZiKVu9deey34D7300kthmik91RSDGRPfjEGW7RiVkydPzl4X19mUI3tdxIospejqDOOupI8byD2gNPU0x/fgrrvuCusTxiCnRP6WCXmZ+jn8th0U5rR8l61ED0tb6h5yRjqiNARblH2vy3RfmAbS8lXUyDHO9aZp4kF9PNjPYqJTociXp5ePhSIKv/zlL4dtmSB0KI9poSUysN91tQkU2Mcff3xWoc0L0+Y+0egqyo336TN8vimH/0mAzlg+P9/97nfDdliQTyXEFPjIscJGmcSh+9PIpUuX5tQN/GSySNeNqmlT3cOqduLEieTVdXA637VrV/KqHOxjNxjIFEVyhtEjD8k+9YA6os9wjO+gLpnrsy9Cg/1ckunZiULzzkX8HngvBX+jXuAXdODAgeRVb/iu2Nej13Vwvu0+R0X/Y7cBDu/tKhbJkc/g85ybZGJ/iLJ9cvg+ffeePXuSo8OT53/Xr54MgvyU2i7/eeiZFfn/kp2y79W1a9dCveslj22oe5Dlf8d/LxPdq7LrdxvRM+hH3LalGaSvnxYkg5Re7XXrkxgTUUjpN43FFC9RUb3ANMwUwKJFi2YjVkxxvv71r4coz/Xr1ydHTFFi2fzKV76S7A1Pnv/d008/nbwaHSwq3UY55AQzvWFmgbqRtqjGkDBb1o0iEE2qtY77tW1tIMv/jv9e9H4VAVlGpm+99dbkiBkV0jsh+0TZm/4sWLAg2ev0XMO8tcod+WDwtaNk+WQMA6bhV199tTMzM8MQIzlqisK0Bor2fffdlxwxRbl69Wqyd6NT7Sjk+d+hRJQFz9zJXvtDnaBu9Jr6Q0FjEEq6mV4wvU77h2JTx1rH40Ke/x2+n2X5bCHLPCN+y5QD99T9QnGWLl2a7HU6//znP5O9ubRWuTt8+PDsKK4sXwm+h8SBdIqmOORni5XtogEX5jOqsrxk+d/96Ec/umENW1MdUsRUN8oACxad5ZUrV4Jf8jSR539XdsCQGR0squTelOzjw276E8cPxIP+NK1V7hhZffDBB2Gf6UDTHDjE0tnAKJGe4wyWgePHjyev+kcyDUrc8JU1WBE/+9nP5qQtefLJJ62E18A999zTWblyZdjvNSU7CK+88kpQ2ttYz4pAVCsruMRUETBkRgNFfM2aNcmrjqe6C3LLLbcke737mdYqd3F0YbozlO9KXIDok/RxNwijg6I9f/78sI+Vok0gI4w+8RthSlNg/VqxYkU4X8Y0J9aHqsjzvyMrv6kW6oZ8KO+8886wHZVpVepisvzvOFam/50ZHRleeFae6i6GlqDsR2uVO6XjyJqWkO9KXIAOLX38ww8/DOfMaLzzzjthG/sLtIF77703JOzFIThdtm7dGs7fdtttybuHI7aglWXdSZPlf4f815kfclrR6FtLywGWWu59XGS9JVAifc7cCIpC2v+O9r2KhN1meORuwkDYFCP2YaaNzqO1yt17770XtlnO5+SfIyAiLoAimD6u6UQzGso3WFYwwLiAfPQrozoKxxFRCxcuTPbKJ8v/rops/+ZG1EB/7WtfC1ug0+Pex0XWW6YY0+fMXOgEGWTFYF0/cuRI8so0zSQP+mkX8U3WAGvc3Fhaq9y9/vrrYTuq1cSMDkKvjsl+FeNNlv8dSW5t7aiGeJowHpGTqJqUG3GR4k3AQPqcyYbBVXr2xgFD4wMBijBpg37aQwYKWNs1wKpzWjl2OchTKlur3Mn/KR4Nm2a4ePFi2NI52a9icOJw96obwTz/u+3btyevTJmcP38+bNMKCM8BX+G4yGqLn1L6nMmHqVgHDI0f3P88v/hxh36MGUDV27r7tvh+5eW6a6Vyp2kkKnQ8Gi4DRtryhxH4wHDM01fZnDt3LmzLchifNuJwdwWmVEme/x1ybspFbUZb3BUUiDZOgQt0ugcPHkxeXQelosyE3WZw5BdflR9xHXzyySdh+8ADD4TtONFK5U5OmlVEZu7evTuk9oj9XPCB4RjFzEXPwxaGySHL/67sbP+mE5KiQ9nr8GIVYepR60+SpqeOwSeDAEq/RMt1Q9uT5X9XZsJuMxjyi5/kQb9mCJtcRzuvrrVSuVP0GUvvFIXgiSIL/WcFY8TFzEUO48uWLQtbMxlk+d+Vme1/2uE+yhd18eLFYVsGzCqwRCL+QJr2ohNi8DnNyWLz/O8849IM8ouPo8QniVhu6jbsxJb+CxcuJHs30phyx8hSIf1Zvg86N2ieOW44ygSdEglCTTEU9ZN1v7HWcC7vWfVCjss4gJY9RT4tKKIM6piWFVn+dygju3btSl5VTxyNRkEWUYrkClEHugbJcgzXoGsblDNnzoQtFtIiuemKrmuKEpM18FSZZgt6lv/dOAcM0d5KvihqnyWTVaO2n/qWvke81nUN2i/wWVm9br/99rCdNOQLHfvb6bkMej8GpVA/0K3stXPp0iVMXLOl2/EnZ67THV3Nnjtw4EBy9DOOHj0aznUbuuTIp5+ePn06vLdbccM5Xo8DXAv/Z5zpCufs/U7fu5mZmRvOZcHxvP+4Y8eOcJ5n1gs9czOXuD7EMl8X1Cv9vsqJEyeSs9VAGxHLZbxfVx2/du3anLqRbnN0nGtKw3s5l1c39Fyrvpf9KLPu6X40IadF0XOJS94zapK43iFf9JPar+Oa9+zZM/v7lLgNp37qOii8TqNzWagP7/cfsvr6cUF9G8+J/6/no8L9qwrdF0pe31q75Y6RACPL7h+fXQMQa4BG4SSexPKmUN9ec9m8Tw68p06dCr5dTBt1b3SjixDHK2AMg9baG7YMAvf77Nmzna4SN3vPNVXEsyKqrFuJQ+lWxHC8Hxptvvjii51nn302fC+Jfs1kkuV/t23btspGp2ojGNkjc92GvbNv377gW4Icaqqx6hE/FsqPP/74hrqhoBLaq/vvv3+2bpC6pAiyhFA3aL+4ryyXZeojy/+OZ8FzGRfoO5gyRu66g4jQv5E2hH5T8k+C9KrAQogvOX20lnLTijVY3aifXIfqRZFZGVn66B/xWafekOh9UlEaF6xo3A8SMfOs1E9y/7Ks/XUxDw0v2a8FHjBJJOkwgKAHlAkqGwvi0mAiwChpNKBMQaRDjOlU0uG/4zTVQAMeOzmyXMggU5LDKoWiiO+gQPi4Pu4fHRdO88D1r127NqzPS4XkPRzL+h8olFRyPdP//e9/s1NOWsEhK0yc56tgCyo8clCzOE4EyAOdD6DoNCHr1LlVq1bNdixQ1bWwnJsUu7Qs617QMSgxdlVQH/ATReaRT3W2hw8fDv68LBvGPm0apKdWkW98ceK6QT344x//GPapG3QKTVBV3dPgsik5HYS4XkGWvDUB7a2UH/bjNpf2Wj5qVd5j5IOBDUYSyTFgOCGokPvGPr6dV65cye0XQIr05z73uc6f//znsI+P6bp16zLdEWhrFAiE/zy/NW7yxDXy34V0FqD/l+sE/72KOi4ZgbzfqF25S4PlCA2XESwWJJS9Z555Jjlr6iQWSho6VeB+iimCFoOzZ5GKGHcwoqnObpwZB+UO4o4FqrgWLAYM8IBOI934615gTchqJzTwG3RA1Y+4g6Nu0PmkO940cSclsPAV8a+rmlHqXrq+x6jDobPTmrlpxuUeoJSjpGvAkidTdRJfU1anHdcPBtvpQTOfp82GMuumFDX1C1io+s2OpeUE402RGbVxrjcifg7oLswsxMSKbfwMy3o+RZS7xp2cYr8V/Fu6ApucMU3QHS3OPg+ezTii6xu29CPrM3WVLLoN6uz5rkKVHK2fuK7ib1IFtAF8P9ssJJ95fmpdpSKcZyu4bu6hSldpTM4Mhv47BV/UaSW+D8OUJmU4BjmQPLEdh74HudZ9ypJT+eHl1Q/urf6P4H/F8j9Mu87ndF1cw7iiaxylFCH2h+wqa8nRz9C5ruKVHLmOnm/e8ysK35v3G6LxVCjxChI//vGPM6fvTH3Id6grfI36LTZJt140VsYVrLqbN28O+0wzar9MGNUqgi7LR5NrkJWFVRqywPoPsYUR3zymgbA4YBEY1gJAnQCsUiR6nlawFOQVwT3KOk+5+eabk3c1Cz5kkieSHI9D36O8h8halpwqfUhe0lxZY9M+oNRZ5J/yhS98ITlaHPn3xS4G04yeA88pbb3H8pgHFnOoI+lx49OysXkT5007F1+fehqFYf1G6FxJt0AHSyWWw6hplqanZWO5gCJT9cMQT31m/U/5vcGgzZb8SbcM6VfFPcAHFd+0Yb9jGpgUn7t4WuvAgQNjo7DglI/CiXIsHy4R+3mdLjAtGoP84qoAWdO5/VBwHAzz+TYR38ssnSXWaapqK8d+WhZzJuZjmcbjqZRe8F7KuJj3y0b/b9gyLArtVikyTdEVrPBezPamGuIpkSZkPp6CyJsOLYM47U76fyKLaieyZI22hM9QsqZJaFv4LPIKfJ/eT+k3VRs/A0o/uE/8FoXvnxZ0f8b5P3Ntus5Rp8fKRtclOY2J2+e0vKblOd126z93B+3JkevHVLLqjFAbr8L7e0E9luyPq2vPKOheUrLaDbU18b3mffH9HpX4mWTJCjQ2LYv2y8iEpUc0QpFJuhdMzYhxHhmOQvfhj1SGgZEAIzPSPogi36XVQKoMyzfNQRCFrGVYrKq0rH/00UfJ3lywHGoKLWsd1pMnTwarHwULXxq1Lfos0dx6P+XNN98Mx7NQeiasJULTK1nQtnGekTVFyU5N8/BsSFoM3cFCWIVlHCFLQQzWIFnOuO70lC3yjIVf8py2rGm6duXKlWEL8ftJ7pwFv4sMdxWIMJsD6UCcNNRjprz5HClc2kb8/9PPAesqAaIQW4NZRxe5416POjNXmETJqwW0V7RMtoyYGIlrxM2lUKQJM0rheJp4hGJGg1EV95Et916WU55N/JrzeVZVPb/0SNGUh0aClLxRWhVQF2UtY1v1M0aO9D9jCyH/n99nJBzfA47HlgFZ19LWRa5b3ys4pv+WdU/5DmSbc/F79Bk5lfP7eQ7m+s1eVpG2of88ru1zbIEdx6AYyVdsnVa90LXrHHLFvuql2vEsa6Q+G9cXWQJ5f1y3uS8Ufpfr0fepHdJrfp/vUJ8do9+rs72qC/03SrpN1D2lrUqfU1uS15cOgr6LknePa1XuaDB1QRQJWtzQcuO4QbyepkaxCeJnEVdwTcPxDBAcbU0zFKnIVYBM6Hfr6KzjdoCCHNJIqi2Qcqc2gv24s9L59LXSUXFcnVI8uMz6X1wH71fh94Q6OD6rehJfg+A39PlpQv+5DnkZlLj/yVPIm0byRUHupEhwXNcv2WPLcbXbaiey/hvv5Zz6VP1O1nv1m/otKW9SHvU5zlEPs8iri21A95LCM+H+c4/UJnE+S3fReT4zKvouSl6fUGvLEwtuukFEWHQu6+bwWucp4zjqmiTi+xkrdoCgxgLMc0sTNwBx52fKpwnlLq6PdSqU1OtYqaQRU1sQ3wfkM+44YoUsjT7Hd6lTQmbVaaXhe/VdvC+uG5yL60ZW5wjqCOO6oc9Q+I42ov83bp16r/ZunOC64n4SJUn1Lx4wUNKypzY53bfG/x3FQgOmvD5U7+U9qnvAtcV1M103RHydQtemEn/vJKF7yX2QAhsX/mdeu6L3l/Hf4/uZV9dqVe74U1xI3p/jXK9GIRaavBtoikGl7HW/ub+c69UISsDyOjhTDrFSU4eixXPX7/GMm4A2IquOczyr/ZB1Lut6Jac0yFLMeo2ey6gbUo7j56VjvTrWSYd7Tclr45uA56SONa2wjCvIWNZ1SjazZE+yna43GmhwXveBupCHZD/rN/T7WXVTZNVFHaPU0YZVhf6/4BnpfvW6J5zT/y8DtWmU+HpialXuRoU/wZ9BQE3zSMDSI0VTLmqcKVlW1DKh8VInwbZXgzVOSHHKGmjo3vFfNLWFFa9KZOFQw8uW+8nxSVAu2kQ8hdXWtgqZ4v8hY2lkCUSpon7rXlRVt9N1kd/UwKqtg5p+qA2PFd5RKKLcNZ7EeBAUdUYuINM8yr1W9QLu084tt9yS7HU6Fy9eTPaqYfv27bNRqXv37h2rJX96oQi22267LWyFouu7HUv4L9/5znfCayIPiZysAr5XOQHJh0Uk+pIlS0L0HOtyVpH3ymRDfkNFmXaVnNYmZj9//nzYppMXgxJ7EylOFG1X0QqvieCsgrguEm3LcmrwyiuvTG3y7/feey9sy8oqES/PpiVD00yUcqf0A2qgTXOkO00z+aCESGHvjronqiFWY4ciTIeycePG8Drd6SGrjyYpHUgfgSJGgtZeWeUH5VKydiTQ8JISojvSDimfpjn5a93QRm3bti3s88w3bNgQ9tvI1atXwxblAZkm3Qb9ZTzQkBKwZs2asCUhN5A6iDpTFmpDSORLYbDIoGaa+wkpvPPnzw9yyRr6o7Q5GoBDXpsyUcqdclXlLT1k6kOdJkJqqiUemaUX1C4L5WUDRvaTtsQQ+TKBTo0OZf369eG18tfFI2b9N5ZQw6rwj3/8o1SlSw05liIpenR4VVkKzVy41+RuUydIrsI2K9YoDUB+OWT6k08+Ce3Gu0muUpRb/X8ZR5BJ2m/uTbwM6CjIAMPvXbt2bXYgpeuYVhYsWBC2DDZ4LuQbLEPZxbiSx8Qod2i5Gmm0NXnxJKFOc+nSpWHbdmi0UBxYXkmF10z74CaQlTi3LOJOKR6xlYVG+kBjMa6JXXvBdDLWMZ4FHYmm3+jojh49esN0FUv1YJnk2NatWzv79u0rteNXYm/aKaZgNQ2GpdDUw/79+2ctVidOnGj9VDhrle7YsWOOTOMWgPxTNwRKxczMTDiGksF0aVn3J3ad4ve1LNbpKAH4NMKAUs+He5FeWm4QpEBD3K7NIfG9G3twGuRyccwEHBTtmNwccujkueAwO8kRUP2QgzCF/43syTFfhWNVgtzrt8p2hJ4Gh/M6wXGce6n2SfKjIA6Ou+2qDmRY8qx7bupBbYmi0dVvUyeAvmJagyrKQve0n3xP1LQs4ByKGZmpl/fffz85apriN7/5TVhQ/fjx462cdsIXRctvYRFiwXisQizD1a1Y4ThUHVSycOHCZK/TuXz5crI3OtPicF4X+NPIuipryPe+972w5T7TdjEt88Ybb4RjplyY4WG6HZgS1L6ph2PHjoWtXKewXvMcqBP4ttJX/PKXvwznzHDEy5/1nDlLlLyxR+HUXHJXWHLDf009xKNjLBM8n7bBf5IVJssyKYsM8lg1/L7ud1nWNaxH+k7qVhXPUCP5Nlt2Y2iXsO4iGzF6fsiTraPVEVu4q+gjlK9NlijzGbQfyD4lhnumdjRdL8zgFO0LJirPnTF1EleiLMVHU9N5pnEqXlZHD3yGc0Wn5+Jp4DIUJf4PSinfR8Nb1TShOttpUe5Mc2iwVaW8qU1IKzDG1IX6HUqvAczETcsaUxcKkmD6NcvhXpGreal5cFpWWoAYpq+ZouMcDs9FiCPE33nnnWRveHA4V4DSCy+8UInDOf9TTu3GVMlbb7016z7R7fxmHfnLRsEyxjQFkdCiV3CplTtjMkAxkfKT5ddAxJJ8q5YtWxa2ae6+++4QqSafK8F3c5xSNBw+TodC6o5RwI9w06ZNYR/FFf/BKoijQ0mgakwV4Gf35JNPhv3ly5eHFChVQL3NGqwZUycaMOPL2Asrd8ZkcClKRJulmBCIIPKsXgQnYEFIn0eh4/gg1gUsh6rMo1jDcPivw+GcjvDll19OXhlTHeR200Dr4MGDpaa1iTly5Eiy58GKaQYtHgD9Vuqax9xssm+MScAyt2TJkrBPlGxs/mYKCKscMAVEBG0MKz1o+mbx4sWzOY1QeMjHJtatWzfQKhBEmymyFeVz0KlUfv+pp566If9XFQnBUXxlGRTpe2hMGVDXlHybuvhEklOwTD7++ONgsZMlH7C6VzX1a0wezLqQKQT6ymDwvDPG3ACOqlQPinI2AYEHivyiKFiCAAUFJbCV02scbMF74ijjQaP54qCKYXJFxQ7ndRfdG2PKIq6jdZdux5pchTH1gdxJBvv1H56WNSaD2MeNZe/w62HUhBWOrOBYCQTnsIixfiJgUdNyM3GwBdNFcT68QS1ZsZXtwoULyV4xYofzJqgiYMNML1ihH3/88eSVMdNBHNAT91FZWLkzJgMUsQMHDoR9pmQWLVoUzOEsTI/DNtOtgMLEOYgduZWkNj3tefHixbCNlcOixMrgoFF7hw4dSvaMmXxIml7FUnxFsc+daQJlaMD9oJ9vqX3ujOkBvneswvHFL34xRJVKwcJyQDoRlDXWZ2RtR1U2LHlS+NLVi/QqKIQojsMszs8asIrYG6Tq8rtxZvO6SfslGjMKWNFjH7i6wVJva7SpE4IpZK0r0n9YuTOmZBRwkRVsIeWMHHiDBFOI2IF8mKAKY4wxk0ccTFGk//C0rDElc+7cubDNmrqR1U3TuoMSh7+fP38+2TPGGNNmUOiEMjn0wsqdMSWj6c877rgjbJnajbfklyPXHWb2OG9REbDUkagV3nzzzbAtCr/FNVAG/V1j6gKXB8kphddVg1UEq7pWpTFm3CCwD5gRKpLL0cqdMRVBRCu56Yjqww9PfPDBByEXHDmKTp48mRwtjnwtjh07FrZF4be4FkZ9iuytAzpnppPpqI3px5UrV4KFGzml4H5QNadOnZq1qpcNiiPFmGGh/5CPKT7eRbByZ0zJ3HvvvWGLbxxLhaHYYKnDGRarG1F+Dz/8cGfr1q1DBVXI74LvGcQCx2+RxgV0jVUipe7BBx+c9RM0ph9Yp+No8jqSXyOjJIVNLxUYI+te0TrH+1evXh3qK8qjMcPy9ttvJ3v5a5mnsXJnTMlgkWNFBiwO+/btmw16wJROI885rBPDZriP/S2UcqUoWnS66lQOdGxr164NSl2TKSvMZHLt2rWwHSZl0DDkLRUY8+GHHwbrnq4tDyzUKIEodb3WpzamKBockAKl6HrkVu6MqQCsDVkdBQoe54pW0Cz4Dhb8B/J9FQVLmpYeU0g9PkZ0RCpl+OLxO6xZi6WQjrCKJaFMu0kHJSGXsZyW5RvH9xCkNG/evGBlKwPVMQZwypVpzCjIBWfNmjVhWwSnQjFmAsEypulZOpEiyiIWBax+KFtYFCFeJ3fPnj2dDRs2zDrr8htFc4nRCcdTzCh4+h46YyweWCzrmGIzk49kJk75sHHjxqA44dpw8ODBG2SJ9xclzlGHL9POnTvDbyH/Wgc6C6Uh6ifHsezrM16L1gxL3EYXbesDKHfGmMlDa9zGa9/2QusSdjux8Jq1bruKXu53xOsY9itbtmxJPjUXzvGefmshGiMkV93OLLzWmszIq47F6P1FSloOJZ/96pHqwyByrM+wNWYYaK+RIWR/EDwta8yEIkvZkSNHwrYfWrKMUSBWPHzizp49GywRrL6RBktDt40oVLwChSkLRVWTMggLGNYvrNRY1ojyzrJcZMlkXklb3bSk07Jly8IWsOjxu3FR/SHSPX3OmCrACiwXhPXr14dtUTwta8yEgh+SfOeKmOvxLUoHN+ATpymkqvC0rBkElCeiyWOGXa6vH3lLBcqFoSh53SiKn6dlzbDI/QZXBIIqBmmrbbkzZkKJU0b8/ve/D9s8UARR7GgkULKwigD7edDBpS0UeYVGyJgyUHJuFDqUInj99dfDNo8smcwrcc5JpZhIR+UyaKJuxAXLIZw4cWLOOWOqQD7P+IIOPAjHcmeMmUzki4T/HT50eeBPxPvkG9ftOMNr+d9lIX+hIkXfm4V8mrqdYHLEmHzkS4q8INOSsSxfO6H3FCmxHKoeFPGJU30YRI71mSLfb0wM8i6Z7SX7edhyZ8wEQ34urHBY5c6cOZMcnYv8mJS8WEujyZ8D3w6ismJIeIxVokghArEfTAEb0wusanIdYAofa4VS6ciih5wirzFZMplX5MoAWirwm9/8ZvhOpoSr4OrVq8meMcU4dOhQ2GIxHip1VqLkGWMmFFnvukpecmQunOM93c4tOfKZhQTrHZFYg0Zj9YPR5szMzOzoc8eOHbbemZ5IlmNLsKzOyLAsbchVGciqHNeBPCvJIJY7LI68j+/TtfO6l3XdGFHUYt0LK3fGtAApb3SOaeKGIu5c1GlS6OTK7HjUaeYVK3kmCylvbAVyKflmQJIl48MihY3Srw4UVe44r+/MKp6iNf2QrPVym+mHo2WNaQFKdNntBGezmReBqSjKUGZ/Y2qEoKBey4MNiwIs+tUB3nf58uUwrVt1hLmZXmiPWesY94QrgyQtTmGfO2NaAFn8t2zZEqKrBolcpZOyYmcmgSoUO0D+i9QB3iM/QGOqYv/+/UGxO3r06Ehtsy13xrQE5ewi3cmgOZGMMcY0i3KXMgNz+PDhkdpwW+6MaQmM8hjtMeorumqFMcaY8eD5558P2+eee27kwbktd8a0DC2w/u67XhHCGGMmAa3MQuoTkhaPipU7Y1oG07OrVq0K+56eNcaY8UbTsU888URYP7mMNtvTssa0DKZn9+7dG6Zn+y3bZIwxpllIJo+v9Pbt20sbjNtyZ0xLqSp1hDHGmPKoIiWVlTtjjDHGmBbhaVljjDHGmBZh5c4YY4wxpkVYuTPGGGOMaRFW7owxxhhjWkOn83+pqRV/Gk0oOAAAAABJRU5ErkJggg==;" parent="WIyWlLk6GJQsqaUBKTNV-1" vertex="1">
          <mxGeometry x="2524.04" y="1244.5" width="265.96" height="51" as="geometry" />
        </mxCell>
        <mxCell id="uBlw1acnTJKu4JBWq5QM-155" value="Вывод знаечений X" style="shape=parallelogram;html=1;strokeWidth=2;perimeter=parallelogramPerimeter;whiteSpace=wrap;rounded=1;arcSize=12;size=0.23;" parent="WIyWlLk6GJQsqaUBKTNV-1" vertex="1">
          <mxGeometry x="2605" y="1401" width="170" height="90" as="geometry" />
        </mxCell>
        <mxCell id="uBlw1acnTJKu4JBWq5QM-158" style="edgeStyle=orthogonalEdgeStyle;rounded=0;orthogonalLoop=1;jettySize=auto;html=1;exitX=0.5;exitY=1;exitDx=0;exitDy=0;entryX=1;entryY=0.5;entryDx=0;entryDy=0;entryPerimeter=0;" parent="WIyWlLk6GJQsqaUBKTNV-1" source="uBlw1acnTJKu4JBWq5QM-155" target="uBlw1acnTJKu4JBWq5QM-38" edge="1">
          <mxGeometry relative="1" as="geometry" />
        </mxCell>
        <mxCell id="uBlw1acnTJKu4JBWq5QM-162" style="edgeStyle=orthogonalEdgeStyle;rounded=0;orthogonalLoop=1;jettySize=auto;html=1;exitX=0;exitY=0.5;exitDx=0;exitDy=0;exitPerimeter=0;entryX=0.5;entryY=0;entryDx=0;entryDy=0;" parent="WIyWlLk6GJQsqaUBKTNV-1" source="uBlw1acnTJKu4JBWq5QM-160" target="uBlw1acnTJKu4JBWq5QM-134" edge="1">
          <mxGeometry relative="1" as="geometry" />
        </mxCell>
        <mxCell id="uBlw1acnTJKu4JBWq5QM-160" value="" style="verticalLabelPosition=bottom;verticalAlign=top;html=1;shape=mxgraph.flowchart.on-page_reference;" parent="WIyWlLk6GJQsqaUBKTNV-1" vertex="1">
          <mxGeometry x="2034.08" y="980" width="60" height="60" as="geometry" />
        </mxCell>
        <mxCell id="uBlw1acnTJKu4JBWq5QM-161" value="&lt;font style=&quot;font-size: 17px;&quot;&gt;A&lt;/font&gt;" style="text;html=1;align=center;verticalAlign=middle;resizable=0;points=[];autosize=1;strokeColor=none;fillColor=none;" parent="WIyWlLk6GJQsqaUBKTNV-1" vertex="1">
          <mxGeometry x="2049.08" y="995" width="30" height="30" as="geometry" />
        </mxCell>
      </root>
    </mxGraphModel>
  </diagram>
</mxfile>
